<?xml version="1.0" encoding="utf-8"?>
<!-- Generator: Adobe Illustrator 25.2.3, SVG Export Plug-In . SVG Version: 6.00 Build 0)  -->
<svg version="1.1" id="Layer_1" xmlns="http://www.w3.org/2000/svg" xmlns:xlink="http://www.w3.org/1999/xlink" x="0px" y="0px"
	 viewBox="0 0 625.3 816.9" style="enable-background:new 0 0 625.3 816.9;" xml:space="preserve">
<style type="text/css">
	.st0{fill:#FFFFFF;}
</style>
<g id="portrait">
	<path class="st0" d="M64.2,260.9c11.8,46.8,29.2,93,60.1,130.7c13.9,16.9,30.4,31.9,49.1,43.3c20.1,12.3,42.4,19.6,65.6,23.2
		c48.8,7.7,100.8,6.2,146-15.6c19.7-9.5,38-23,51.8-40c14.3-17.6,24-38.2,30.8-59.8c7.8-24.6,12.7-50.4,16.6-75.9
		c4.4-28.3,5.3-56.7,0.4-85c-1.7-9.5-16.1-5.5-14.5,4c4.1,23.5,3.7,47.5,0.5,71c-3,21.7-7.1,43.1-12.5,64.3
		c-5.2,20.6-12.2,40.9-23.6,58.9c-11.1,17.3-26,31.8-43.7,42.3c-40,24.1-87.9,27.9-133.4,23.1c-22.6-2.4-45.2-7.1-65.6-17.4
		c-17.9-9.3-34-21.6-47.6-36.4c-34.9-37.2-53.4-86.1-65.6-134.8C76.3,247.5,61.8,251.5,64.2,260.9L64.2,260.9z"/>
	<path class="st0" d="M482.7,271.4c4.2-6.4,10.6-13.3,18.8-13.5c6.9-0.2,13,4.5,11.2,11.8c-2.1,8.8-11.5,14.2-18.3,19.1
		c-9.6,6.9-19.2,13.7-28.8,20.6c-7.8,5.6-0.3,18.6,7.6,13c12.7-9.1,25.8-17.8,38.1-27.3c10.3-7.9,19.8-20.3,16.1-34.1
		c-3.1-11.5-14.9-18.4-26.4-17.9c-13.5,0.6-24,10.2-31.1,20.9C464.4,271.9,477.4,279.4,482.7,271.4L482.7,271.4z"/>
	<path class="st0" d="M91.9,314.3c-12.6-2.9-26.5-5.1-37.4,3.5c-9.8,7.7-12,20.6-4.5,30.7c14.4,19.3,40.9,29.4,64.4,29.9
		c9.7,0.2,9.7-14.8,0-15c-16.8-0.4-33.5-6.4-46.2-17.5c-4.7-4.1-11.3-9.8-5.3-15.6c6.5-6.3,17.3-3.2,25-1.5
		C97.3,330.9,101.3,316.5,91.9,314.3z"/>
	<path class="st0" d="M193,34.1c-25.7-3.4-50.6-4-74.8,6.6C96.9,50.1,78.4,66,63.4,83.6c-28.5,33-40,77.3-31.2,120
		c4.6,22.9,15.1,44.2,30.3,61.9c1.9,1.9,4.7,2.7,7.3,1.9c25.5-6.6,48.8-20,67.4-38.8c7-7-3.2-16.5-10.6-10.6
		c-13.8,10.9-27.5,21.8-41.3,32.8c-6.5,5.2,0.8,13.7,7.3,12.5c49.1-8.5,91-44,109-90.2c-4.8-1.3-9.6-2.7-14.5-4
		c-7.8,23.8-22.7,44.6-42.6,59.7c-3.3,2.4-4.9,6.5-2.7,10.3c1.8,3.2,7,5.1,10.3,2.7c23.2-17.2,40.4-41.2,49.5-68.6
		c3.1-9.3-11-12.8-14.5-4c-16.1,41.6-54.8,72.2-98.5,79.8c2.4,4.2,4.9,8.4,7.3,12.5c13.8-10.9,27.5-21.8,41.3-32.8l-10.6-10.6
		c-16.7,16.9-37.7,29-60.8,35c2.4,0.6,4.9,1.3,7.3,1.9C49,227,39.4,187.4,46.3,151.3c7.5-39.5,36.3-74.6,71.4-93.5
		c10.4-5.7,21.8-9.4,33.6-10.7c13.9-1.3,27.9,0.3,41.6,2.1c4,0.5,7.5-3.8,7.5-7.5C200.5,37.1,197,34.6,193,34.1L193,34.1z"/>
	<path class="st0" d="M221.8,151c-7.5,25.6-19.4,49.7-35.2,71.2c-2.4,3.3-0.5,8.3,2.7,10.3c3.8,2.3,7.9,0.6,10.3-2.7
		c16.5-22.6,28.9-47.9,36.7-74.7C239,145.7,224.5,141.7,221.8,151z"/>
	<path class="st0" d="M269.7,155.4c1.1,11,2.6,22.1,3,33.2c0.4,9.5-0.5,18.8-6,26.8s7.5,15.5,13,7.6c13.3-19.3,7.2-45.9,5.1-67.5
		c-0.4-4-3.2-7.5-7.5-7.5C273.4,147.9,269.3,151.3,269.7,155.4z"/>
	<path class="st0" d="M309.9,158.9c-0.9,15.5,2.3,31,9.4,44.8c4.3,8.6,17.3,1,13-7.6c-5.7-11.5-8.2-24.4-7.3-37.2
		C325.5,149.3,310.5,149.3,309.9,158.9z"/>
	<path class="st0" d="M346.6,160.5c44.5,37.5,105,34.4,158.5,22.6c6.9-1.5,7.4-13.3,0-14.5c-24-3.6-47.5-10-70-19.1
		c-3.8-1.5-8.2,1.7-9.2,5.2c-1.2,4.3,1.5,7.7,5.2,9.2c22.5,9.1,46,15.5,70,19.1v-14.5c-47.6,10.5-104,15-143.9-18.7
		C349.8,143.7,339.2,154.3,346.6,160.5z"/>
	<path class="st0" d="M304.6,29.8c31.1-17.8,70.3-19.5,103.2-5.6c32.7,13.9,56,43.3,64.6,77.5c4.9,19,4.7,38.9-0.4,57.8
		c-2.5,9.3,11.9,13.3,14.5,4c10.3-38,2.1-80.4-21.3-112.1C441.1,18.9,403,0.4,362.5,0C339.6-0.2,317,5.6,297,16.8
		C288.6,21.6,296.2,34.6,304.6,29.8L304.6,29.8z"/>
	<path class="st0" d="M232.9,459.3c4,21.6-3.1,43.7-19.1,58.8c-7,6.7,3.5,17.2,10.6,10.6c1.1-1,2.1-2,3.2-2.9
		c7.1-6.6-3.5-17.2-10.6-10.6c-1.1,1-2.1,2-3.2,2.9l10.6,10.6c19.6-19,28.3-46.6,22.9-73.4C245.5,445.9,231.1,449.9,232.9,459.3
		L232.9,459.3z"/>
	<path class="st0" d="M383.9,440.5c4.8,14.9,9.4,30.9,17.3,44.6c7.4,12.9,19.5,20.8,32.5,27.4c8.6,4.4,16.2-8.6,7.6-13
		c-11.3-5.8-21.7-12-27.9-23.5c-6.6-12.3-10.7-26.3-15-39.6C395.4,427.3,380.9,431.2,383.9,440.5z"/>
	<path class="st0" d="M165.1,516.8c-40.9,11.3-74.6,38.9-99.4,72.6c-27.9,38-43,83.6-52.4,129.4c-5.8,28.1-9.5,56.6-13.3,85
		c-0.5,4,3.8,7.5,7.5,7.5c4.5,0,7-3.5,7.5-7.5c11.4-86.3,25.6-182.2,96.2-241.7c16.8-14.3,36.5-24.9,57.8-30.9
		C178.4,528.7,174.4,514.3,165.1,516.8L165.1,516.8z"/>
	<path class="st0" d="M48.2,644.1c37,46.2,37.1,109.2,36.3,165.5c-0.1,9.7,14.9,9.7,15,0c0.9-60.9-0.8-126.2-40.7-176.1
		c-2.6-3.2-7.9-2.6-10.6,0C45.1,636.5,45.7,640.9,48.2,644.1z"/>
	<path class="st0" d="M169.9,531.6c43.7-4.1,80.9,27.5,121,39.5c24.4,7.3,49.1,5.4,73.6-0.9c20.1-5.3,40-13.4,57.2-25.1
		c19.6-13.4,35.4-31.4,43.2-54.1c-3.1,1.7-6.2,3.5-9.2,5.2c42.1,9.6,72.6,43.3,94.2,78.8c25.7,42.1,43.1,89.5,52.5,137.9
		c5.4,27.6,8,55.6,7.9,83.7c0,9.7,15,9.7,15,0c0.1-52.9-9.1-105.3-27.3-155c-16.4-44.6-39.1-90.1-73.8-123.3
		c-18.1-17.3-39.9-30.8-64.5-36.4c-4-1-8,1.3-9.2,5.2c-13,37.7-52.2,58.7-88.5,68.4c-22.9,6.1-45.5,7.9-68.4,0.9
		c-19.6-6-37.6-16-56.3-24.3c-21.2-9.5-43.7-17.4-67.3-15.2C160.4,517.5,160.3,532.5,169.9,531.6L169.9,531.6z"/>
	<path class="st0" d="M561,589.5c-18.7,27.8-35.8,55.8-40.4,89.5c-2.4,17.7-3.7,35.7-4.6,53.5c-1.1,18-0.3,36.1,2.1,54
		c0.6,4,5.7,6.2,9.2,5.2c4.3-1.2,5.8-5.2,5.2-9.2c-2.5-17.2-2.4-34.7-1.5-52c0.9-16.5,2-33.1,4.3-49.5c4.3-31.8,21.1-58,38.6-84.1
		C579.4,589,566.4,581.5,561,589.5L561,589.5z"/>
	<path class="st0" d="M124.9,554.2c28.9-3,57.1,0.9,83.8,12.4c24.7,10.6,47.6,24.9,72.7,34.4c52.8,20,109.8,7.3,156.1-22.8
		c25.7-16.7,48.1-37.8,68.7-60.4c6.5-7.1-4.1-17.8-10.6-10.6c-35.5,39.1-78,74.8-131,85.8c-25.9,5.4-52.8,3.4-77.6-5.9
		c-24.2-9-46.3-22.8-69.9-33.1c-29.3-12.8-60.2-18.1-92.1-14.7c-4,0.4-7.5,3.1-7.5,7.5C117.4,550.4,120.8,554.6,124.9,554.2
		L124.9,554.2z"/>
	<path class="st0" d="M212.7,606.2c22.2,1.3,42.8,11,63.3,18.7c21.5,8.1,44,13.9,67.1,9.6c9.5-1.8,5.5-16.2-4-14.5
		c-21.9,4.1-44-3.8-64.2-11.6s-40.3-16-62.2-17.3C203.1,590.6,203.1,605.6,212.7,606.2z"/>
	<path class="st0" d="M251.6,650.1c20.9,1.6,38.3,16.4,59.9,14.9c9.6-0.7,9.6-15.7,0-15c-10.4,0.7-19.9-2.9-29.5-6.6
		c-10-3.9-19.7-7.5-30.5-8.3C242,634.3,242.1,649.3,251.6,650.1L251.6,650.1z"/>
	<path class="st0" d="M221.5,252.1c-32.3-7.9-66.4-2.7-94.8,14.6c-6.6,4-0.6,14.4,6.1,10.4c25.6-15.7,56.4-20.5,85.5-13.4
		C225.8,265.5,229,254,221.5,252.1L221.5,252.1z"/>
	<path class="st0" d="M347.1,238.6c27.3-10.6,57.4-21.3,86.4-10.6c7.3,2.7,10.4-8.9,3.2-11.6c-31-11.4-63.4-0.7-92.7,10.6
		C336.8,229.8,339.9,241.4,347.1,238.6L347.1,238.6z"/>
	<path class="st0" d="M256.4,289.9c2.2,8.8,3.3,17.8,3.3,26.9c0.1,4,1,7.6-3,9.4c-4.4,1.8-8.9,3.2-13.5,4.4
		c-17.9,5.4-36.3,9.2-54.9,11.2c-4.5,0.5-9.1,1-13.7,1.1c-4.4,0.1-6.7-1-9.4-4.4c-2.6-3.2-4.9-6.6-7-10.2c-1.7-2.7-5.7-7.6-4.5-11
		c2.1-5.8,14.1-8.2,19-9.8c8.9-3,17.9-5.6,27.1-7.7c20.5-4.8,41.5-6.6,62.5-5.4c7.7,0.5,7.7-11.5,0-12c-23-1.2-46,0.9-68.4,6.5
		c-11.6,2.7-22.9,6.2-34,10.5c-7.6,2.9-16,7.3-18,16c-2.2,9.8,6.6,20.6,12,27.9c2.5,3.4,5.1,6.9,8.8,9.1c4.4,2.6,9.4,2.8,14.4,2.5
		c23.2-1.5,46.2-5.6,68.5-12.3c10.8-3.2,24.9-5.4,26.2-18.8c1.1-12-0.6-25.2-3.7-36.9C266,279.2,254.4,282.4,256.4,289.9
		L256.4,289.9z"/>
	<path class="st0" d="M326.6,270c0,10.4,0.1,20.7,0.1,31.1c0,4.6-0.7,9.9,0.8,14.3c1.7,4.9,6,6.9,10.8,7.5c17.9,2.4,35.3,2,52.9-2.2
		c10.3-2.5,20.6-5.3,30.9-8.1c3.9-1.1,7.4-2.3,9.2-6.1c2.2-4.6,2.1-11.1,2.3-16.2c0.4-8.4,1.3-20-3.5-27.5
		c-5.3-8.3-15.9-7.4-24.4-7.3c-25.2,0.2-50.3,3.2-74.8,8.8c-7.5,1.7-4.3,13.3,3.2,11.6c17.2-3.9,34.6-6.5,52.2-7.6
		c8.7-0.6,17.5-0.8,26.2-0.7c2.8,0,6.4-0.4,7.9,2.5s1.2,7.5,1.3,10.6c0.1,3.9,0.1,7.8-0.2,11.7c-0.2,2.2-0.1,4.8-0.7,6.9
		c0.9-3.2-0.4,1.8,0,1.4c-0.4,0.5-3.1,0.8-3.8,1c-8.4,2.3-16.8,4.5-25.3,6.7c-12.9,3.4-26.2,4.8-39.5,4.1c-2-0.1-4-0.3-5.9-0.5
		c-1.4-0.1-6.6,0.1-7.6-0.9c-0.7-0.7-0.1-4.4-0.1-5.3v-7.3c0-9.4-0.1-18.9-0.1-28.3C338.5,262.3,326.5,262.3,326.6,270z"/>
	<path class="st0" d="M273.5,310.9c15.4-8.5,33.4-11.2,50.6-7.6c7.5,1.6,10.8-10,3.2-11.6c-20.3-4.3-41.6-1.2-59.8,8.8
		C260.7,304.2,266.7,314.6,273.5,310.9L273.5,310.9z"/>
	<path class="st0" d="M151.5,320.1c-21-6.9-42-9.2-64-9.3c-7.7,0-7.7,12,0,12c10.3-0.2,20.6,0.4,30.8,1.6c10.2,1.5,20.3,4,30,7.4
		C155.7,334.1,158.8,322.5,151.5,320.1z"/>
	<path class="st0" d="M432.8,282c16.6-9.1,34.4-15.8,52.9-20.1c7.5-1.8,4.3-13.3-3.2-11.6c-19.4,4.6-38.2,11.7-55.7,21.3
		C419.9,275.4,426,285.7,432.8,282L432.8,282z"/>
	<path class="st0" d="M271.4,402.1c19.6,12.5,41.7,11.2,60.4-2.4c6.2-4.5,0.2-14.9-6.1-10.4c-7.1,5.2-15.1,9.4-24.1,9.8
		c-8.8,0.4-16.8-2.7-24.2-7.4C270.9,387.6,264.9,398,271.4,402.1L271.4,402.1z"/>
	<circle class="st0" cx="209.1" cy="316.8" r="10.8"/>
	<circle class="st0" cx="380.2" cy="290" r="10.8"/>
</g>
</svg>
