<?xml version="1.0" encoding="UTF-8" standalone="no"?><!DOCTYPE svg PUBLIC "-//W3C//DTD SVG 1.1//EN" "http://www.w3.org/Graphics/SVG/1.1/DTD/svg11.dtd"><svg width="100%" height="100%" viewBox="0 0 1000 500" version="1.1" xmlns="http://www.w3.org/2000/svg" xmlns:xlink="http://www.w3.org/1999/xlink" xml:space="preserve" style="fill-rule:evenodd;clip-rule:evenodd;stroke-linejoin:round;stroke-miterlimit:1.41421;"><rect x="0" y="0" width="1000" height="500" style="fill:#00a245;"/><g><path d="M496.557,199.149l-0.709,3.263l-0.094,0.441l-0.093,0.438l-0.091,0.437l-0.09,0.433l-0.087,0.432l-0.086,0.429l-0.085,0.427l-0.083,0.424l-0.081,0.422l-0.079,0.42l-0.078,0.418l-0.076,0.415l-0.075,0.413l-0.073,0.411l-0.072,0.408l-0.07,0.406l-0.068,0.404l-0.067,0.401l-0.065,0.399l-0.064,0.397l-0.063,0.395l-0.06,0.392l-0.06,0.39l-0.057,0.388l-0.057,0.386l-0.055,0.383l-0.053,0.381l-0.052,0.379l-0.051,0.377l-0.049,0.374l-0.047,0.372l-0.047,0.37l-0.045,0.368l-0.043,0.365l-0.042,0.364l-0.041,0.361l-0.039,0.359l-0.038,0.356l-0.037,0.355l-0.035,0.352l-0.034,0.35l-0.033,0.348l-0.032,0.346l-0.03,0.344l-0.029,0.341l-0.027,0.34l-0.027,0.337l-0.025,0.335l-0.024,0.333l-0.022,0.33l-0.022,0.329l-0.02,0.326l-0.019,0.325l-0.018,0.322l-0.016,0.32l-0.016,0.318l-0.014,0.316l-0.013,0.314l-0.012,0.311l-0.011,0.31l-0.01,0.308l-0.009,0.305l-0.007,0.303l-0.007,0.301l-0.005,0.299l-0.004,0.298l-0.004,0.295l-0.002,0.293l-0.001,0.29l0,0.29l0.001,0.286l0.002,0.285l0.002,0.283l0.004,0.281l0.005,0.278l0.006,0.277l0.007,0.275l0.007,0.272l0.009,0.27l0.01,0.269l0.01,0.267l0.011,0.264l0.013,0.263l0.013,0.261l0.014,0.258l0.015,0.257l0.016,0.255l0.016,0.252l0.018,0.251l0.018,0.249l0.019,0.247l0.02,0.245l0.021,0.243l0.021,0.241l0.023,0.239l0.023,0.237l0.023,0.235l0.025,0.234l0.025,0.231l0.026,0.229l0.027,0.228l0.027,0.226l0.028,0.224l0.029,0.221l0.03,0.22l0.03,0.219l0.031,0.216l0.031,0.214l0.032,0.212l0.033,0.211l0.033,0.209l0.034,0.207l0.034,0.205l0.036,0.203l0.035,0.201l0.036,0.2l0.037,0.197l0.037,0.196l0.038,0.194l0.039,0.192l0.038,0.19l0.04,0.189l0.04,0.187l0.04,0.185l0.041,0.183l0.041,0.181l0.042,0.18l0.042,0.178l0.042,0.176l0.043,0.174l0.044,0.173l0.043,0.17l0.045,0.169l0.044,0.167l0.045,0.166l0.045,0.164l0.046,0.161l0.046,0.161l0.046,0.158l0.046,0.157l0.047,0.155l0.048,0.153l0.047,0.152l0.048,0.15l0.047,0.148l0.049,0.146l0.048,0.145l0.049,0.143l0.049,0.142l0.049,0.139l0.049,0.139l0.049,0.136l0.05,0.135l0.05,0.133l0.05,0.131l0.05,0.13l0.05,0.128l0.051,0.126l0.05,0.125l0.05,0.123l0.051,0.121l0.051,0.12l0.051,0.119l0.05,0.117l0.051,0.115l0.051,0.113l0.051,0.112l0.051,0.11l0.051,0.108l0.051,0.108l0.05,0.105l0.051,0.104l0.049,0.098l0.103,0.204l0.101,0.193l0.101,0.187l0.099,0.181l0.1,0.175l0.098,0.169l0.098,0.162l0.097,0.157l0.095,0.15l0.094,0.144l0.094,0.138l0.091,0.132l0.09,0.126l0.088,0.12l0.087,0.114l0.084,0.108l0.083,0.103l0.08,0.096l0.077,0.09l0.075,0.084l0.072,0.079l0.069,0.072l0.065,0.066l0.062,0.061l0.058,0.054l0.054,0.049l0.049,0.043l0.044,0.037l0.039,0.03l0.011,0.009l4.146,0.955l-1.3,5.802l-4.525,-0.985l-0.153,-0.034l-0.152,-0.035l-0.151,-0.036l-0.151,-0.036l-0.15,-0.037l-0.15,-0.038l-0.149,-0.039l-0.148,-0.04l-0.148,-0.04l-0.147,-0.041l-0.147,-0.041l-0.146,-0.043l-0.146,-0.043l-0.144,-0.044l-0.145,-0.045l-0.144,-0.045l-0.142,-0.046l-0.143,-0.047l-0.142,-0.048l-0.141,-0.048l-0.141,-0.049l-0.14,-0.05l-0.14,-0.051l-0.139,-0.051l-0.138,-0.052l-0.138,-0.053l-0.137,-0.053l-0.136,-0.054l-0.136,-0.055l-0.136,-0.056l-0.134,-0.056l-0.134,-0.057l-0.134,-0.058l-0.133,-0.058l-0.132,-0.06l-0.132,-0.06l-0.131,-0.06l-0.13,-0.062l-0.13,-0.061l-0.129,-0.063l-0.129,-0.063l-0.128,-0.064l-0.127,-0.065l-0.127,-0.065l-0.126,-0.066l-0.126,-0.067l-0.125,-0.068l-0.124,-0.068l-0.124,-0.068l-0.123,-0.07l-0.122,-0.07l-0.122,-0.071l-0.121,-0.071l-0.121,-0.072l-0.12,-0.073l-0.119,-0.073l-0.119,-0.074l-0.118,-0.075l-0.117,-0.075l-0.117,-0.076l-0.12,-0.079l-0.227,-0.152l-0.228,-0.157l-0.226,-0.16l-0.223,-0.162l-0.22,-0.165l-0.218,-0.167l-0.215,-0.169l-0.214,-0.172l-0.21,-0.173l-0.208,-0.176l-0.205,-0.179l-0.203,-0.18l-0.2,-0.183l-0.198,-0.184l-0.195,-0.187l-0.193,-0.189l-0.191,-0.191l-0.188,-0.193l-0.185,-0.194l-0.183,-0.197l-0.18,-0.199l-0.178,-0.2l-0.176,-0.203l-0.173,-0.204l-0.17,-0.206l-0.169,-0.207l-0.166,-0.21l-0.163,-0.211l-0.161,-0.212l-0.159,-0.215l-0.156,-0.216l-0.154,-0.217l-0.152,-0.219l-0.149,-0.221l-0.147,-0.222l-0.145,-0.223l-0.142,-0.225l-0.14,-0.227l-0.138,-0.228l-0.136,-0.229l-0.134,-0.23l-0.131,-0.232l-0.129,-0.233l-0.127,-0.235l-0.125,-0.235l-0.123,-0.237l-0.12,-0.239l-0.119,-0.239l-0.116,-0.24l-0.114,-0.242l-0.113,-0.242l-0.11,-0.244l-0.108,-0.245l-0.107,-0.246l-0.104,-0.247l-0.102,-0.248l-0.101,-0.249l-0.098,-0.25l-0.097,-0.251l-0.094,-0.252l-0.093,-0.252l-0.091,-0.254l-0.089,-0.255l-0.087,-0.255l-0.086,-0.256l-0.083,-0.258l-0.082,-0.258l-0.08,-0.258l-0.079,-0.26l-0.076,-0.26l-0.075,-0.261l-0.073,-0.262l-0.072,-0.263l-0.07,-0.263l-0.068,-0.264l-0.066,-0.265l-0.065,-0.265l-0.064,-0.266l-0.061,-0.267l-0.061,-0.267l-0.058,-0.268l-0.057,-0.268l-0.056,-0.269l-0.054,-0.269l-0.052,-0.27l-0.051,-0.271l-0.05,-0.271l-0.048,-0.272l-0.046,-0.272l-0.045,-0.272l-0.044,-0.273l-0.042,-0.273l-0.041,-0.274l-0.04,-0.274l-0.038,-0.275l-0.037,-0.275l-0.035,-0.275l-0.034,-0.275l-0.033,-0.276l-0.032,-0.277l-0.03,-0.276l-0.029,-0.277l-0.028,-0.277l-0.026,-0.278l-0.025,-0.277l-0.024,-0.278l-0.023,-0.278l-0.022,-0.278l-0.02,-0.279l-0.019,-0.278l-0.018,-0.279l-0.017,-0.279l-0.016,-0.279l-0.014,-0.279l-0.014,-0.279l-0.012,-0.279l-0.011,-0.279l-0.011,-0.28l-0.009,-0.279l-0.008,-0.28l-0.007,-0.279l-0.006,-0.279l-0.005,-0.28l-0.003,-0.279l-0.003,-0.279l-0.002,-0.279l-0.001,-0.279l0,-0.279l0.001,-0.279l0.002,-0.279l0.002,-0.278l0.004,-0.279l0.005,-0.278l0.005,-0.278l0.007,-0.278l0.007,-0.278l0.008,-0.277l0.009,-0.277l0.01,-0.277l0.011,-0.276l0.012,-0.276l0.012,-0.276l0.013,-0.276l0.014,-0.275l0.015,-0.275l0.015,-0.274l0.017,-0.276l0.034,-0.545l0.038,-0.545l0.041,-0.544l0.043,-0.541l0.046,-0.539l0.048,-0.537l0.051,-0.534l0.053,-0.532l0.056,-0.529l0.058,-0.527l0.059,-0.523l0.062,-0.521l0.064,-0.517l0.066,-0.514l0.068,-0.511l0.069,-0.507l0.071,-0.504l0.073,-0.499l0.074,-0.496l0.075,-0.492l0.077,-0.488l0.077,-0.483l0.079,-0.479l0.08,-0.474l0.082,-0.47l0.081,-0.465l0.083,-0.46l0.084,-0.455l0.084,-0.45l0.084,-0.444l0.086,-0.439l0.085,-0.433l0.086,-0.428l0.086,-0.422l0.086,-0.416l0.087,-0.41l0.086,-0.403l0.086,-0.397l0.755,-3.428l16.508,4.286Zm-11.977,3.203l-0.081,0.42l-0.081,0.424l-0.081,0.43l-0.079,0.434l-0.079,0.44l-0.079,0.444l-0.077,0.448l-0.076,0.453l-0.076,0.456l-0.074,0.461l-0.073,0.465l-0.072,0.469l-0.07,0.472l-0.069,0.476l-0.068,0.479l-0.066,0.482l-0.064,0.485l-0.063,0.489l-0.06,0.491l-0.059,0.493l-0.057,0.497l-0.054,0.498l-0.053,0.501l-0.05,0.503l-0.049,0.505l-0.045,0.507l-0.043,0.508l-0.041,0.51l-0.038,0.511l-0.036,0.513l-0.032,0.516l-0.016,0.255l-0.014,0.257l-0.014,0.258l-0.013,0.257l-0.012,0.258l-0.012,0.259l-0.011,0.258l-0.01,0.258l-0.009,0.259l-0.008,0.258l-0.008,0.259l-0.007,0.258l-0.006,0.259l-0.005,0.259l-0.005,0.258l-0.003,0.259l-0.003,0.258l-0.001,0.259l-0.001,0.258l0,0.258l0.001,0.258l0.001,0.258l0.003,0.258l0.004,0.258l0.004,0.258l0.006,0.257l0.006,0.257l0.008,0.257l0.008,0.256l0.009,0.256l0.011,0.256l0.011,0.256l0.012,0.255l0.014,0.255l0.014,0.255l0.015,0.254l0.017,0.254l0.017,0.253l0.019,0.252l0.019,0.253l0.021,0.251l0.021,0.252l0.023,0.251l0.024,0.25l0.025,0.25l0.026,0.249l0.027,0.248l0.028,0.248l0.03,0.247l0.03,0.247l0.032,0.246l0.033,0.245l0.034,0.244l0.035,0.244l0.036,0.244l0.038,0.242l0.038,0.241l0.04,0.241l0.041,0.24l0.043,0.238l0.043,0.239l0.045,0.237l0.046,0.236l0.047,0.236l0.048,0.234l0.05,0.234l0.051,0.232l0.052,0.232l0.053,0.23l0.055,0.23l0.056,0.228l0.057,0.228l0.059,0.226l0.059,0.226l0.061,0.224l0.063,0.223l0.063,0.221l0.065,0.221l0.067,0.22l0.067,0.218l0.069,0.217l0.07,0.216l0.072,0.215l0.073,0.213l0.074,0.212l0.075,0.211l0.077,0.209l0.079,0.208l0.079,0.207l0.081,0.206l0.082,0.204l0.084,0.203l0.085,0.201l0.086,0.2l0.088,0.198l0.089,0.197l0.091,0.196l0.092,0.194l0.093,0.193l0.095,0.191l0.096,0.189l0.097,0.188l0.099,0.187l0.1,0.185l0.102,0.183l0.103,0.182l0.104,0.181l0.106,0.178l0.108,0.178l0.108,0.175l0.11,0.174l0.112,0.173l0.113,0.17l0.115,0.17l0.115,0.167l0.118,0.166l0.119,0.164l0.12,0.163l0.122,0.161l0.123,0.159l0.125,0.158l0.126,0.155l0.128,0.154l0.13,0.153l0.13,0.151l0.133,0.149l0.134,0.148l0.072,0.077l-0.044,-0.138l-0.056,-0.18l-0.056,-0.18l-0.055,-0.183l-0.055,-0.185l-0.054,-0.185l-0.054,-0.188l-0.053,-0.19l-0.053,-0.19l-0.052,-0.193l-0.052,-0.194l-0.051,-0.196l-0.051,-0.198l-0.05,-0.199l-0.049,-0.201l-0.05,-0.203l-0.048,-0.204l-0.048,-0.206l-0.047,-0.208l-0.047,-0.209l-0.046,-0.211l-0.045,-0.213l-0.045,-0.215l-0.044,-0.216l-0.043,-0.218l-0.043,-0.22l-0.042,-0.221l-0.042,-0.223l-0.041,-0.225l-0.04,-0.227l-0.039,-0.229l-0.039,-0.23l-0.038,-0.232l-0.037,-0.233l-0.037,-0.236l-0.036,-0.237l-0.035,-0.24l-0.034,-0.24l-0.034,-0.243l-0.032,-0.244l-0.032,-0.247l-0.031,-0.248l-0.031,-0.25l-0.029,-0.251l-0.029,-0.254l-0.028,-0.255l-0.027,-0.257l-0.026,-0.259l-0.025,-0.261l-0.025,-0.263l-0.023,-0.264l-0.023,-0.266l-0.022,-0.268l-0.021,-0.27l-0.02,-0.272l-0.019,-0.274l-0.018,-0.276l-0.017,-0.277l-0.017,-0.28l-0.015,-0.281l-0.014,-0.283l-0.013,-0.285l-0.013,-0.287l-0.011,-0.289l-0.011,-0.291l-0.009,-0.292l-0.008,-0.295l-0.008,-0.297l-0.006,-0.298l-0.005,-0.3l-0.004,-0.303l-0.003,-0.304l-0.002,-0.306l-0.001,-0.308l0,-0.31l0.001,-0.312l0.003,-0.315l0.003,-0.315l0.005,-0.318l0.006,-0.32l0.007,-0.322l0.008,-0.324l0.009,-0.326l0.01,-0.328l0.012,-0.33l0.013,-0.332l0.014,-0.334l0.015,-0.335l0.016,-0.338l0.018,-0.34l0.019,-0.342l0.02,-0.344l0.022,-0.346l0.022,-0.348l0.024,-0.351l0.025,-0.352l0.027,-0.354l0.028,-0.356l0.029,-0.359l0.03,-0.36l0.032,-0.363l0.033,-0.364l0.035,-0.367l0.036,-0.369l0.037,-0.371l0.039,-0.372l0.04,-0.376l0.041,-0.377l0.043,-0.379l0.044,-0.381l0.046,-0.384l0.047,-0.386l0.048,-0.387l0.05,-0.39l0.051,-0.392l0.053,-0.395l0.055,-0.396l0.056,-0.398l0.057,-0.401l0.059,-0.403l0.06,-0.405l0.062,-0.407l0.063,-0.409l0.065,-0.412l0.067,-0.414l0.068,-0.416l0.07,-0.418l0.071,-0.42l0.073,-0.423l0.074,-0.424l0.076,-0.427l0.078,-0.429l0.079,-0.432l0.081,-0.433l0.083,-0.436l0.084,-0.438l0.086,-0.441l0.087,-0.442l0.068,-0.337l-4.889,-1.269l-0.021,0.108Z" style="fill:#c0ffb7;"/><path d="M465.346,212.577l6.737,48.836l0.013,0.015l0.053,0.058l0.057,0.061l0.06,0.064l0.063,0.065l0.067,0.068l0.069,0.07l0.073,0.072l0.076,0.073l0.078,0.075l0.082,0.077l0.084,0.079l0.087,0.08l0.09,0.082l0.092,0.083l0.092,0.082l0.201,0.176l0.208,0.179l0.217,0.184l0.227,0.189l0.236,0.194l0.244,0.198l0.253,0.202l0.261,0.206l0.269,0.21l0.277,0.214l0.284,0.218l0.292,0.221l0.298,0.224l0.305,0.228l0.312,0.231l0.318,0.234l0.324,0.237l0.33,0.241l0.336,0.242l0.341,0.246l0.346,0.248l0.351,0.251l0.355,0.253l0.727,0.514l0.742,0.523l0.758,0.531l0.77,0.538l1.578,1.099l1.612,1.122l0.816,0.569l0.82,0.573l0.823,0.577l0.824,0.58l0.823,0.583l0.412,0.293l0.411,0.293l0.411,0.294l0.409,0.294l0.408,0.294l0.407,0.295l0.405,0.294l0.403,0.295l0.402,0.295l0.4,0.296l0.397,0.295l0.395,0.295l0.393,0.295l0.39,0.294l0.386,0.295l0.384,0.294l0.381,0.294l0.377,0.294l0.373,0.293l0.37,0.293l0.365,0.293l0.362,0.292l0.357,0.291l0.353,0.291l0.348,0.29l0.343,0.289l0.339,0.289l0.333,0.288l0.328,0.288l0.321,0.285l0.162,0.145l0.157,0.143l0.157,0.142l0.155,0.143l0.154,0.143l0.152,0.142l0.15,0.142l0.149,0.142l0.148,0.142l0.146,0.142l0.145,0.141l0.142,0.142l0.142,0.141l0.139,0.141l0.139,0.141l0.136,0.141l0.135,0.141l0.133,0.141l0.131,0.141l0.13,0.141l0.128,0.141l0.126,0.14l0.125,0.141l0.122,0.141l0.121,0.141l0.119,0.141l0.117,0.141l0.116,0.141l0.114,0.142l0.111,0.142l0.11,0.141l0.108,0.143l0.106,0.142l0.104,0.143l0.102,0.144l0.1,0.144l0.098,0.144l0.096,0.145l0.094,0.146l0.091,0.147l0.09,0.147l0.087,0.149l0.085,0.149l0.083,0.15l0.08,0.152l0.078,0.153l0.076,0.154l0.072,0.156l0.07,0.157l0.068,0.16l0.064,0.161l0.061,0.162l0.058,0.164l0.055,0.168l0.051,0.169l0.047,0.171l0.044,0.174l0.039,0.176l0.035,0.179l0.03,0.181l0.025,0.183l0.019,0.186l0.014,0.177l0.005,0.106l0.003,0.095l0.002,0.096l0,0.097l-0.001,0.097l-0.003,0.098l-0.005,0.098l-0.006,0.097l-0.009,0.099l-0.01,0.099l-0.012,0.099l-0.014,0.098l-0.015,0.099l-0.018,0.1l-0.02,0.099l-0.021,0.099l-0.024,0.1l-0.022,0.084l-13.363,49.873l-0.048,0.175l-0.049,0.179l-0.051,0.178l-0.052,0.178l-0.053,0.177l-0.054,0.176l-0.055,0.177l-0.056,0.175l-0.057,0.175l-0.058,0.174l-0.059,0.174l-0.061,0.173l-0.061,0.173l-0.062,0.172l-0.063,0.171l-0.065,0.171l-0.065,0.17l-0.066,0.17l-0.067,0.168l-0.069,0.169l-0.069,0.167l-0.07,0.168l-0.072,0.166l-0.072,0.166l-0.073,0.166l-0.074,0.164l-0.075,0.164l-0.076,0.164l-0.077,0.162l-0.078,0.163l-0.079,0.161l-0.08,0.161l-0.081,0.16l-0.081,0.16l-0.083,0.159l-0.084,0.158l-0.084,0.158l-0.085,0.156l-0.087,0.156l-0.087,0.156l-0.088,0.155l-0.089,0.155l-0.09,0.153l-0.091,0.153l-0.091,0.152l-0.093,0.152l-0.093,0.151l-0.095,0.15l-0.095,0.149l-0.096,0.149l-0.096,0.148l-0.098,0.148l-0.099,0.146l-0.099,0.146l-0.1,0.146l-0.101,0.144l-0.102,0.144l-0.103,0.143l-0.103,0.142l-0.105,0.142l-0.105,0.141l-0.106,0.14l-0.106,0.14l-0.108,0.139l-0.108,0.138l-0.109,0.137l-0.11,0.137l-0.111,0.135l-0.111,0.136l-0.113,0.134l-0.112,0.133l-0.114,0.133l-0.115,0.132l-0.115,0.132l-0.116,0.13l-0.116,0.13l-0.118,0.129l-0.118,0.129l-0.119,0.127l-0.12,0.127l-0.12,0.125l-0.121,0.126l-0.122,0.124l-0.122,0.124l-0.123,0.123l-0.124,0.122l-0.125,0.121l-0.125,0.12l-0.126,0.12l-0.127,0.119l-0.127,0.118l-0.128,0.117l-0.129,0.117l-0.129,0.115l-0.13,0.115l-0.131,0.114l-0.131,0.113l-0.132,0.113l-0.132,0.111l-0.134,0.111l-0.133,0.11l-0.135,0.109l-0.135,0.108l-0.136,0.108l-0.136,0.106l-0.137,0.106l-0.137,0.105l-0.138,0.104l-0.139,0.104l-0.14,0.102l-0.139,0.101l-0.141,0.101l-0.141,0.1l-0.142,0.099l-0.142,0.098l-0.143,0.098l-0.143,0.096l-0.144,0.095l-0.145,0.095l-0.145,0.094l-0.145,0.093l-0.146,0.092l-0.147,0.091l-0.147,0.091l-0.148,0.089l-0.148,0.089l-0.149,0.087l-0.15,0.087l-0.149,0.086l-0.15,0.085l-0.151,0.084l-0.152,0.083l-0.151,0.083l-0.153,0.081l-0.153,0.081l-0.153,0.079l-0.154,0.079l-0.154,0.078l-0.155,0.077l-0.155,0.076l-0.155,0.075l-0.157,0.074l-0.156,0.073l-0.157,0.072l-0.158,0.071l-0.158,0.071l-0.158,0.069l-0.159,0.069l-0.159,0.067l-0.16,0.067l-0.16,0.066l-0.16,0.064l-0.161,0.064l-0.161,0.063l-0.162,0.062l-0.162,0.061l-0.163,0.06l-0.163,0.059l-0.163,0.058l-0.164,0.057l-0.164,0.056l-0.164,0.055l-0.165,0.054l-0.165,0.054l-0.166,0.052l-0.166,0.051l-0.166,0.05l-0.166,0.049l-0.167,0.049l-0.168,0.047l-0.167,0.046l-0.168,0.046l-0.169,0.044l-0.168,0.043l-0.169,0.042l-0.17,0.042l-0.169,0.04l-0.17,0.039l-0.17,0.038l-0.17,0.037l-0.171,0.037l-0.171,0.035l-0.172,0.034l-0.171,0.033l-0.172,0.032l-0.172,0.031l-0.172,0.03l-0.173,0.029l-0.173,0.028l-0.174,0.027l-0.173,0.026l-0.174,0.024l-0.174,0.024l-0.174,0.023l-0.174,0.021l-0.175,0.021l-0.175,0.019l-0.175,0.019l-0.175,0.017l-0.176,0.017l-0.176,0.015l-0.175,0.014l-0.176,0.013l-0.177,0.012l-0.176,0.011l-0.177,0.01l-0.177,0.008l-0.177,0.008l-0.177,0.007l-0.177,0.005l-0.178,0.004l-0.178,0.004l-0.177,0.002l-0.178,0.001l-0.178,0l-0.178,-0.001l-0.179,-0.003l-0.179,-0.003l-0.178,-0.005l-0.179,-0.005l-0.178,-0.007l-0.18,-0.008l-0.179,-0.009l-0.179,-0.01l-0.179,-0.011l-0.179,-0.013l-0.18,-0.013l-0.179,-0.015l-0.18,-0.016l-0.179,-0.017l-0.18,-0.018l-0.18,-0.019l-0.18,-0.021l-0.179,-0.021l-0.18,-0.023l-0.18,-0.024l-0.18,-0.025l-0.18,-0.026l-0.18,-0.028l-0.18,-0.028l-0.18,-0.03l-0.18,-0.031l-0.18,-0.032l-0.18,-0.033l-0.18,-0.035l-0.181,-0.035l-0.179,-0.037l-0.18,-0.038l-0.18,-0.039l-0.18,-0.04l-0.18,-0.042l-0.18,-0.043l-0.18,-0.044l-0.18,-0.045l-0.179,-0.046l-0.175,-0.046l-87.998,-23.579l-0.175,-0.048l-0.179,-0.05l-0.178,-0.05l-0.178,-0.052l-0.177,-0.053l-0.176,-0.054l-0.176,-0.055l-0.176,-0.056l-0.175,-0.057l-0.174,-0.059l-0.174,-0.059l-0.173,-0.06l-0.172,-0.061l-0.172,-0.062l-0.172,-0.064l-0.171,-0.064l-0.17,-0.065l-0.169,-0.066l-0.169,-0.068l-0.169,-0.068l-0.168,-0.069l-0.167,-0.071l-0.166,-0.071l-0.166,-0.072l-0.165,-0.073l-0.165,-0.074l-0.164,-0.075l-0.164,-0.076l-0.162,-0.077l-0.163,-0.078l-0.161,-0.079l-0.161,-0.08l-0.16,-0.081l-0.16,-0.082l-0.158,-0.082l-0.159,-0.084l-0.158,-0.084l-0.156,-0.086l-0.156,-0.086l-0.156,-0.087l-0.155,-0.088l-0.155,-0.089l-0.153,-0.09l-0.153,-0.091l-0.152,-0.092l-0.152,-0.092l-0.151,-0.093l-0.15,-0.095l-0.149,-0.095l-0.149,-0.096l-0.148,-0.097l-0.148,-0.097l-0.146,-0.099l-0.146,-0.099l-0.145,-0.1l-0.145,-0.102l-0.144,-0.101l-0.143,-0.103l-0.142,-0.103l-0.142,-0.105l-0.141,-0.105l-0.14,-0.106l-0.14,-0.107l-0.139,-0.107l-0.138,-0.108l-0.137,-0.11l-0.137,-0.109l-0.135,-0.111l-0.135,-0.111l-0.135,-0.113l-0.133,-0.113l-0.133,-0.113l-0.132,-0.115l-0.132,-0.115l-0.13,-0.116l-0.13,-0.117l-0.129,-0.117l-0.128,-0.118l-0.128,-0.119l-0.127,-0.12l-0.125,-0.12l-0.125,-0.121l-0.125,-0.122l-0.124,-0.123l-0.123,-0.123l-0.121,-0.124l-0.122,-0.124l-0.12,-0.125l-0.12,-0.126l-0.119,-0.127l-0.118,-0.127l-0.117,-0.128l-0.116,-0.129l-0.116,-0.129l-0.115,-0.13l-0.114,-0.131l-0.113,-0.131l-0.113,-0.132l-0.111,-0.133l-0.111,-0.133l-0.11,-0.134l-0.109,-0.134l-0.108,-0.135l-0.108,-0.136l-0.106,-0.136l-0.106,-0.137l-0.105,-0.138l-0.104,-0.138l-0.103,-0.138l-0.103,-0.14l-0.101,-0.14l-0.101,-0.14l-0.1,-0.142l-0.099,-0.141l-0.098,-0.142l-0.098,-0.143l-0.096,-0.143l-0.095,-0.144l-0.095,-0.145l-0.094,-0.145l-0.093,-0.145l-0.092,-0.147l-0.091,-0.146l-0.09,-0.147l-0.09,-0.148l-0.089,-0.148l-0.087,-0.149l-0.087,-0.15l-0.086,-0.149l-0.085,-0.151l-0.084,-0.151l-0.083,-0.151l-0.083,-0.152l-0.081,-0.152l-0.08,-0.153l-0.08,-0.153l-0.079,-0.154l-0.078,-0.154l-0.077,-0.155l-0.075,-0.155l-0.075,-0.156l-0.075,-0.156l-0.073,-0.157l-0.072,-0.156l-0.071,-0.158l-0.071,-0.158l-0.069,-0.158l-0.069,-0.159l-0.067,-0.159l-0.067,-0.16l-0.066,-0.16l-0.064,-0.161l-0.064,-0.16l-0.063,-0.162l-0.062,-0.162l-0.061,-0.161l-0.06,-0.163l-0.059,-0.163l-0.058,-0.163l-0.057,-0.164l-0.056,-0.164l-0.055,-0.164l-0.054,-0.165l-0.053,-0.165l-0.053,-0.166l-0.051,-0.166l-0.05,-0.166l-0.049,-0.167l-0.049,-0.167l-0.047,-0.167l-0.046,-0.168l-0.045,-0.167l-0.045,-0.169l-0.043,-0.169l-0.042,-0.168l-0.041,-0.169l-0.041,-0.17l-0.039,-0.17l-0.038,-0.17l-0.037,-0.171l-0.037,-0.17l-0.035,-0.172l-0.034,-0.171l-0.033,-0.172l-0.032,-0.171l-0.031,-0.172l-0.03,-0.173l-0.029,-0.173l-0.028,-0.173l-0.027,-0.173l-0.026,-0.173l-0.024,-0.174l-0.024,-0.174l-0.023,-0.174l-0.021,-0.175l-0.021,-0.174l-0.019,-0.175l-0.019,-0.175l-0.017,-0.175l-0.016,-0.176l-0.016,-0.176l-0.014,-0.176l-0.013,-0.176l-0.012,-0.176l-0.011,-0.177l-0.01,-0.176l-0.008,-0.177l-0.008,-0.177l-0.006,-0.177l-0.006,-0.178l-0.004,-0.177l-0.004,-0.178l-0.002,-0.178l-0.001,-0.178l0,-0.177l0.002,-0.179l0.002,-0.178l0.003,-0.178l0.005,-0.179l0.005,-0.179l0.007,-0.179l0.008,-0.179l0.009,-0.179l0.01,-0.179l0.012,-0.179l0.012,-0.18l0.014,-0.179l0.014,-0.179l0.016,-0.18l0.017,-0.179l0.018,-0.18l0.019,-0.18l0.021,-0.18l0.021,-0.18l0.023,-0.179l0.024,-0.18l0.025,-0.18l0.026,-0.18l0.028,-0.18l0.028,-0.18l0.03,-0.18l0.031,-0.18l0.032,-0.181l0.033,-0.18l0.035,-0.179l0.035,-0.181l0.037,-0.18l0.038,-0.179l0.039,-0.181l0.041,-0.18l0.041,-0.179l0.043,-0.18l0.044,-0.18l0.045,-0.18l0.046,-0.179l0.046,-0.176l13.362,-49.864l0.05,-0.185l0.053,-0.19l0.054,-0.189l0.055,-0.188l0.057,-0.188l0.057,-0.187l0.059,-0.187l0.06,-0.185l0.061,-0.186l0.062,-0.184l0.064,-0.184l0.065,-0.183l0.065,-0.183l0.067,-0.182l0.068,-0.181l0.07,-0.181l0.07,-0.18l0.071,-0.179l0.073,-0.178l0.074,-0.178l0.074,-0.177l0.076,-0.177l0.077,-0.175l0.078,-0.176l0.079,-0.174l0.081,-0.174l0.081,-0.173l0.082,-0.172l0.084,-0.171l0.084,-0.171l0.086,-0.17l0.086,-0.169l0.088,-0.169l0.089,-0.168l0.09,-0.167l0.09,-0.167l0.092,-0.165l0.093,-0.165l0.094,-0.164l0.094,-0.163l0.096,-0.163l0.097,-0.162l0.098,-0.161l0.098,-0.16l0.1,-0.16l0.101,-0.159l0.101,-0.158l0.103,-0.157l0.104,-0.156l0.104,-0.156l0.106,-0.155l0.106,-0.154l0.107,-0.153l0.109,-0.152l0.109,-0.152l0.11,-0.151l0.111,-0.15l0.112,-0.149l0.113,-0.148l0.114,-0.148l0.114,-0.146l0.116,-0.146l0.116,-0.145l0.118,-0.144l0.118,-0.144l0.119,-0.142l0.12,-0.142l0.12,-0.141l0.122,-0.14l0.122,-0.139l0.124,-0.138l0.124,-0.138l0.125,-0.136l0.125,-0.136l0.127,-0.135l0.127,-0.134l0.128,-0.133l0.129,-0.132l0.13,-0.131l0.131,-0.131l0.131,-0.129l0.132,-0.129l0.133,-0.128l0.134,-0.126l0.134,-0.126l0.135,-0.126l0.136,-0.124l0.137,-0.123l0.138,-0.122l0.138,-0.122l0.139,-0.12l0.139,-0.12l0.141,-0.119l0.141,-0.117l0.141,-0.117l0.143,-0.116l0.143,-0.115l0.144,-0.114l0.145,-0.113l0.145,-0.112l0.146,-0.112l0.147,-0.11l0.147,-0.109l0.148,-0.109l0.149,-0.107l0.149,-0.107l0.15,-0.105l0.151,-0.105l0.151,-0.103l0.152,-0.103l0.152,-0.101l0.153,-0.101l0.154,-0.1l0.155,-0.099l0.155,-0.097l0.155,-0.097l0.156,-0.096l0.157,-0.094l0.158,-0.094l0.158,-0.093l0.158,-0.092l0.16,-0.091l0.159,-0.089l0.16,-0.089l0.161,-0.088l0.162,-0.086l0.162,-0.086l0.043,-0.023l54.16,-34.217l32.612,8.581Zm-83.778,30.842l-0.248,0.129l-0.128,0.068l-0.128,0.069l-0.128,0.069l-0.127,0.071l-0.127,0.071l-0.126,0.072l-0.126,0.073l-0.125,0.073l-0.125,0.075l-0.124,0.075l-0.124,0.076l-0.124,0.077l-0.123,0.077l-0.122,0.078l-0.122,0.079l-0.121,0.08l-0.121,0.081l-0.121,0.081l-0.12,0.082l-0.119,0.083l-0.119,0.084l-0.118,0.084l-0.118,0.085l-0.118,0.086l-0.116,0.087l-0.117,0.087l-0.115,0.089l-0.116,0.088l-0.114,0.09l-0.114,0.091l-0.114,0.091l-0.113,0.091l-0.112,0.093l-0.112,0.093l-0.111,0.094l-0.111,0.095l-0.11,0.096l-0.109,0.096l-0.109,0.097l-0.108,0.097l-0.108,0.099l-0.107,0.099l-0.107,0.1l-0.106,0.1l-0.105,0.101l-0.104,0.102l-0.104,0.103l-0.104,0.103l-0.102,0.104l-0.103,0.105l-0.101,0.105l-0.101,0.106l-0.1,0.107l-0.1,0.107l-0.098,0.108l-0.099,0.109l-0.097,0.109l-0.097,0.11l-0.096,0.111l-0.095,0.111l-0.095,0.112l-0.094,0.113l-0.094,0.113l-0.093,0.114l-0.092,0.115l-0.091,0.115l-0.091,0.116l-0.089,0.117l-0.09,0.117l-0.088,0.118l-0.088,0.119l-0.087,0.119l-0.086,0.12l-0.086,0.12l-0.085,0.121l-0.084,0.122l-0.083,0.122l-0.083,0.123l-0.082,0.124l-0.081,0.124l-0.08,0.125l-0.08,0.125l-0.078,0.126l-0.078,0.127l-0.078,0.127l-0.076,0.128l-0.076,0.129l-0.075,0.129l-0.074,0.129l-0.073,0.131l-0.073,0.131l-0.071,0.131l-0.071,0.132l-0.07,0.133l-0.07,0.133l-0.068,0.134l-0.068,0.135l-0.066,0.134l-0.066,0.136l-0.066,0.136l-0.064,0.137l-0.063,0.137l-0.063,0.138l-0.062,0.139l-0.061,0.139l-0.06,0.14l-0.059,0.14l-0.058,0.14l-0.058,0.142l-0.056,0.142l-0.056,0.142l-0.055,0.143l-0.054,0.144l-0.053,0.144l-0.052,0.144l-0.051,0.146l-0.05,0.146l-0.05,0.146l-0.048,0.147l-0.048,0.147l-0.047,0.149l-0.045,0.148l-0.045,0.149l-0.044,0.15l-0.043,0.15l-0.042,0.151l-0.042,0.156l-13.356,49.845l-0.039,0.147l-0.037,0.143l-0.036,0.143l-0.035,0.143l-0.034,0.143l-0.033,0.143l-0.032,0.143l-0.031,0.142l-0.03,0.143l-0.029,0.143l-0.029,0.143l-0.027,0.143l-0.026,0.142l-0.026,0.143l-0.024,0.142l-0.024,0.143l-0.022,0.143l-0.022,0.143l-0.021,0.142l-0.02,0.143l-0.019,0.142l-0.018,0.142l-0.017,0.142l-0.016,0.143l-0.015,0.142l-0.014,0.142l-0.014,0.142l-0.012,0.142l-0.012,0.142l-0.011,0.142l-0.009,0.142l-0.009,0.141l-0.008,0.142l-0.008,0.141l-0.006,0.142l-0.005,0.141l-0.005,0.141l-0.003,0.142l-0.003,0.141l-0.002,0.141l-0.001,0.14l0,0.141l0.001,0.141l0.002,0.14l0.002,0.141l0.004,0.14l0.004,0.14l0.005,0.14l0.006,0.14l0.007,0.14l0.008,0.139l0.009,0.14l0.009,0.139l0.01,0.139l0.012,0.139l0.012,0.139l0.012,0.139l0.014,0.138l0.015,0.139l0.015,0.138l0.016,0.138l0.017,0.138l0.018,0.138l0.019,0.137l0.02,0.137l0.02,0.138l0.021,0.137l0.022,0.136l0.023,0.137l0.024,0.136l0.025,0.136l0.025,0.136l0.026,0.136l0.027,0.136l0.028,0.135l0.029,0.135l0.029,0.135l0.03,0.135l0.031,0.134l0.032,0.134l0.033,0.134l0.033,0.134l0.034,0.133l0.036,0.133l0.035,0.133l0.037,0.133l0.037,0.133l0.039,0.132l0.039,0.132l0.039,0.131l0.041,0.132l0.041,0.131l0.042,0.131l0.043,0.13l0.044,0.131l0.044,0.13l0.046,0.129l0.046,0.13l0.046,0.129l0.048,0.128l0.048,0.129l0.049,0.128l0.05,0.128l0.051,0.128l0.051,0.127l0.052,0.126l0.053,0.127l0.053,0.126l0.055,0.126l0.055,0.126l0.056,0.125l0.056,0.125l0.058,0.125l0.058,0.124l0.058,0.123l0.06,0.124l0.06,0.123l0.061,0.123l0.062,0.122l0.062,0.122l0.063,0.121l0.064,0.122l0.065,0.12l0.065,0.121l0.066,0.12l0.067,0.12l0.067,0.119l0.068,0.118l0.069,0.119l0.069,0.118l0.071,0.117l0.071,0.117l0.071,0.117l0.073,0.117l0.073,0.115l0.073,0.116l0.075,0.115l0.075,0.115l0.076,0.114l0.076,0.114l0.077,0.113l0.078,0.112l0.079,0.113l0.079,0.112l0.08,0.111l0.08,0.111l0.081,0.11l0.082,0.11l0.083,0.11l0.083,0.109l0.084,0.108l0.084,0.109l0.086,0.107l0.085,0.107l0.087,0.107l0.087,0.106l0.088,0.105l0.088,0.105l0.089,0.105l0.09,0.104l0.09,0.103l0.091,0.103l0.092,0.103l0.092,0.102l0.093,0.101l0.093,0.101l0.094,0.1l0.095,0.1l0.096,0.099l0.096,0.099l0.096,0.098l0.098,0.097l0.097,0.097l0.099,0.096l0.099,0.096l0.1,0.096l0.1,0.094l0.101,0.095l0.101,0.093l0.102,0.093l0.103,0.092l0.103,0.092l0.104,0.091l0.105,0.091l0.105,0.09l0.105,0.089l0.107,0.089l0.106,0.088l0.108,0.087l0.108,0.087l0.108,0.086l0.109,0.086l0.11,0.085l0.11,0.084l0.111,0.084l0.112,0.083l0.112,0.083l0.112,0.081l0.114,0.082l0.113,0.08l0.114,0.08l0.115,0.079l0.116,0.079l0.115,0.078l0.117,0.077l0.117,0.076l0.118,0.076l0.118,0.075l0.118,0.075l0.12,0.073l0.119,0.074l0.12,0.072l0.121,0.072l0.122,0.071l0.122,0.07l0.122,0.07l0.123,0.068l0.124,0.069l0.124,0.067l0.124,0.067l0.125,0.066l0.126,0.065l0.126,0.065l0.127,0.064l0.127,0.063l0.128,0.062l0.128,0.062l0.128,0.061l0.13,0.06l0.129,0.059l0.131,0.059l0.13,0.058l0.132,0.057l0.131,0.056l0.133,0.056l0.132,0.055l0.134,0.054l0.134,0.053l0.134,0.053l0.135,0.051l0.135,0.051l0.136,0.05l0.136,0.05l0.137,0.048l0.137,0.048l0.138,0.047l0.138,0.046l0.139,0.045l0.139,0.045l0.139,0.043l0.141,0.043l0.141,0.042l0.141,0.042l0.141,0.04l0.143,0.04l0.147,0.039l87.979,23.575l0.148,0.039l0.143,0.036l0.143,0.036l0.142,0.035l0.143,0.034l0.143,0.033l0.143,0.032l0.143,0.031l0.142,0.03l0.143,0.03l0.143,0.028l0.143,0.027l0.142,0.026l0.143,0.026l0.143,0.024l0.143,0.024l0.142,0.022l0.143,0.022l0.142,0.021l0.143,0.02l0.142,0.019l0.142,0.018l0.143,0.017l0.142,0.016l0.142,0.015l0.142,0.014l0.142,0.014l0.142,0.012l0.142,0.012l0.142,0.011l0.142,0.01l0.142,0.008l0.141,0.009l0.142,0.007l0.141,0.006l0.141,0.005l0.142,0.005l0.141,0.003l0.141,0.003l0.141,0.002l0.141,0.001l0.14,0l0.141,-0.001l0.141,-0.002l0.14,-0.002l0.14,-0.004l0.14,-0.004l0.14,-0.005l0.14,-0.006l0.14,-0.007l0.139,-0.008l0.14,-0.009l0.139,-0.009l0.139,-0.01l0.14,-0.011l0.138,-0.012l0.139,-0.013l0.139,-0.014l0.138,-0.015l0.138,-0.015l0.138,-0.016l0.138,-0.017l0.138,-0.018l0.137,-0.019l0.138,-0.02l0.137,-0.02l0.137,-0.021l0.136,-0.022l0.137,-0.023l0.137,-0.024l0.136,-0.025l0.136,-0.025l0.135,-0.026l0.136,-0.027l0.135,-0.028l0.135,-0.029l0.135,-0.029l0.135,-0.03l0.134,-0.031l0.135,-0.032l0.133,-0.033l0.134,-0.033l0.134,-0.034l0.133,-0.035l0.133,-0.036l0.133,-0.037l0.132,-0.037l0.132,-0.039l0.132,-0.039l0.132,-0.039l0.131,-0.041l0.131,-0.041l0.131,-0.042l0.131,-0.043l0.13,-0.044l0.13,-0.044l0.129,-0.046l0.13,-0.046l0.129,-0.046l0.129,-0.048l0.128,-0.048l0.128,-0.049l0.128,-0.05l0.128,-0.051l0.127,-0.051l0.127,-0.052l0.127,-0.053l0.126,-0.053l0.125,-0.055l0.126,-0.055l0.125,-0.056l0.125,-0.056l0.125,-0.057l0.124,-0.058l0.123,-0.059l0.124,-0.06l0.123,-0.06l0.123,-0.061l0.122,-0.061l0.122,-0.063l0.122,-0.063l0.121,-0.064l0.12,-0.064l0.121,-0.066l0.12,-0.066l0.12,-0.066l0.119,-0.068l0.119,-0.068l0.118,-0.069l0.118,-0.069l0.118,-0.071l0.117,-0.071l0.117,-0.071l0.116,-0.073l0.116,-0.072l0.115,-0.074l0.115,-0.075l0.115,-0.075l0.114,-0.076l0.114,-0.076l0.113,-0.077l0.113,-0.078l0.112,-0.079l0.112,-0.079l0.111,-0.08l0.111,-0.08l0.111,-0.081l0.109,-0.082l0.11,-0.083l0.109,-0.083l0.109,-0.084l0.108,-0.084l0.107,-0.085l0.107,-0.086l0.107,-0.087l0.106,-0.087l0.106,-0.088l0.104,-0.088l0.105,-0.089l0.104,-0.09l0.104,-0.09l0.103,-0.091l0.102,-0.092l0.102,-0.092l0.101,-0.093l0.101,-0.093l0.1,-0.094l0.1,-0.095l0.099,-0.096l0.099,-0.095l0.098,-0.097l0.098,-0.097l0.097,-0.098l0.096,-0.099l0.096,-0.099l0.095,-0.099l0.095,-0.101l0.094,-0.101l0.093,-0.101l0.093,-0.102l0.092,-0.103l0.092,-0.103l0.091,-0.104l0.091,-0.105l0.09,-0.105l0.089,-0.105l0.089,-0.106l0.088,-0.107l0.087,-0.108l0.087,-0.108l0.087,-0.108l0.085,-0.109l0.085,-0.11l0.085,-0.11l0.084,-0.111l0.082,-0.112l0.083,-0.112l0.082,-0.112l0.081,-0.113l0.08,-0.114l0.08,-0.114l0.079,-0.115l0.079,-0.115l0.078,-0.116l0.077,-0.117l0.076,-0.117l0.076,-0.117l0.076,-0.119l0.074,-0.118l0.074,-0.119l0.073,-0.12l0.072,-0.12l0.072,-0.121l0.071,-0.122l0.07,-0.122l0.07,-0.122l0.069,-0.123l0.068,-0.123l0.068,-0.125l0.066,-0.124l0.066,-0.125l0.066,-0.126l0.064,-0.126l0.064,-0.126l0.063,-0.128l0.063,-0.127l0.061,-0.129l0.061,-0.128l0.06,-0.129l0.06,-0.13l0.058,-0.131l0.058,-0.13l0.057,-0.132l0.057,-0.131l0.055,-0.132l0.055,-0.133l0.054,-0.134l0.053,-0.134l0.053,-0.134l0.052,-0.135l0.05,-0.135l0.051,-0.136l0.049,-0.136l0.048,-0.137l0.048,-0.137l0.047,-0.138l0.046,-0.138l0.046,-0.139l0.044,-0.139l0.044,-0.139l0.043,-0.141l0.042,-0.141l0.041,-0.141l0.04,-0.141l0.04,-0.142l0.04,-0.148l13.33,-49.747l-0.001,-0.005l-0.005,-0.022l-0.007,-0.026l-0.008,-0.031l-0.011,-0.034l-0.012,-0.038l-0.015,-0.042l-0.017,-0.046l-0.02,-0.049l-0.022,-0.053l-0.025,-0.056l-0.028,-0.059l-0.03,-0.062l-0.033,-0.065l-0.036,-0.068l-0.039,-0.071l-0.042,-0.073l-0.044,-0.076l-0.048,-0.079l-0.05,-0.08l-0.053,-0.082l-0.056,-0.085l-0.059,-0.087l-0.062,-0.089l-0.064,-0.091l-0.068,-0.092l-0.07,-0.094l-0.072,-0.096l-0.076,-0.098l-0.078,-0.099l-0.081,-0.101l-0.083,-0.101l-0.086,-0.104l-0.089,-0.105l-0.091,-0.106l-0.093,-0.107l-0.096,-0.109l-0.099,-0.11l-0.101,-0.111l-0.103,-0.112l-0.106,-0.113l-0.107,-0.114l-0.11,-0.115l-0.113,-0.117l-0.115,-0.117l-0.116,-0.118l-0.119,-0.119l-0.122,-0.12l-0.123,-0.121l-0.125,-0.121l-0.127,-0.122l-0.129,-0.123l-0.132,-0.125l-0.133,-0.124l-0.135,-0.126l-0.137,-0.126l-0.139,-0.126l-0.141,-0.128l-0.141,-0.126l-0.292,-0.26l-0.297,-0.26l-0.304,-0.263l-0.31,-0.265l-0.317,-0.267l-0.323,-0.268l-0.328,-0.271l-0.334,-0.272l-0.339,-0.274l-0.344,-0.275l-0.349,-0.277l-0.354,-0.278l-0.359,-0.279l-0.362,-0.281l-0.367,-0.281l-0.371,-0.282l-0.374,-0.283l-0.378,-0.284l-0.381,-0.285l-0.385,-0.285l-0.387,-0.286l-0.39,-0.287l-0.392,-0.287l-0.395,-0.287l-0.397,-0.287l-0.398,-0.287l-0.401,-0.288l-0.401,-0.288l-0.404,-0.287l-0.403,-0.287l-0.813,-0.575l-0.813,-0.573l-0.815,-0.571l-0.813,-0.569l-0.811,-0.565l-1.611,-1.121l-1.581,-1.102l-0.778,-0.543l-0.767,-0.537l-0.754,-0.531l-0.738,-0.523l-0.366,-0.26l-0.36,-0.257l-0.356,-0.256l-0.352,-0.253l-0.347,-0.252l-0.343,-0.249l-0.338,-0.247l-0.332,-0.245l-0.328,-0.243l-0.322,-0.241l-0.317,-0.238l-0.311,-0.236l-0.306,-0.234l-0.3,-0.232l-0.293,-0.229l-0.288,-0.227l-0.281,-0.225l-0.275,-0.222l-0.268,-0.221l-0.262,-0.218l-0.256,-0.216l-0.248,-0.214l-0.239,-0.21l-0.122,-0.108l-0.116,-0.105l-0.115,-0.105l-0.114,-0.105l-0.111,-0.104l-0.11,-0.104l-0.109,-0.103l-0.106,-0.104l-0.105,-0.103l-0.103,-0.104l-0.102,-0.104l-0.1,-0.103l-0.098,-0.104l-0.097,-0.104l-0.096,-0.104l-0.093,-0.105l-0.092,-0.106l-0.091,-0.106l-0.088,-0.107l-0.088,-0.108l-0.087,-0.11l-0.084,-0.111l-0.083,-0.113l-0.082,-0.115l-0.08,-0.117l-0.432,-0.659l-6.391,-46.329l-26.217,-6.899l-52.164,32.957Z" style="fill:#c0ffb7;"/><rect x="354.213" y="374.119" width="103.506" height="6" style="fill:#c0ffb7;"/><rect x="354.213" y="364.118" width="72.87" height="6" style="fill:#c0ffb7;"/><path d="M540.786,173.939l-8.024,29.948l-29.948,-8.025l8.025,-29.947l29.947,8.024Zm-30.623,17.681l18.356,4.918l4.919,-18.356l-18.357,-4.918l-4.918,18.356Z" style="fill:#c0ffb7;"/><path d="M519.734,156.603l-13.717,51.192l-34.843,-9.336l-5.437,20.293l-36.491,-9.777l5.438,-20.293l-40.184,-10.767l8.255,-30.81l13.766,-11.849l18.821,-1.266l84.392,22.613Zm-100.815,-15.495l-10.847,9.337l-6.223,23.227l40.183,10.767l-5.437,20.293l24.899,6.672l5.437,-20.293l34.843,9.336l10.611,-39.601l-77.634,-20.802l-15.832,1.064Z" style="fill:#c0ffb7;"/><g><path d="M639.038,168.925l-5.872,21.915l-5.796,-1.553l5.873,-21.915l5.795,1.553Z" style="fill:#c0ffb7;"/><path d="M644.938,179.145l-1.553,5.795l-21.915,-5.872l1.553,-5.796l21.915,5.873Z" style="fill:#c0ffb7;"/></g><g><path d="M611.435,232.016l-3.374,12.592l-5.795,-1.553l3.373,-12.591l5.796,1.552Z" style="fill:#c0ffb7;"/><path d="M613.922,236.325l-1.553,5.795l-12.591,-3.374l1.553,-5.795l12.591,3.374Z" style="fill:#c0ffb7;"/></g><path d="M598.233,180.4l-1.174,4.549l-0.047,0.194l-0.046,0.194l-0.043,0.193l-0.041,0.193l-0.038,0.192l-0.036,0.191l-0.034,0.192l-0.031,0.19l-0.03,0.19l-0.027,0.189l-0.024,0.189l-0.023,0.188l-0.02,0.187l-0.018,0.187l-0.015,0.186l-0.014,0.186l-0.011,0.185l-0.009,0.184l-0.007,0.184l-0.005,0.183l-0.002,0.182l-0.001,0.181l0.002,0.181l0.004,0.18l0.006,0.179l0.008,0.178l0.01,0.178l0.012,0.177l0.015,0.176l0.016,0.175l0.018,0.175l0.021,0.174l0.022,0.172l0.025,0.172l0.027,0.171l0.028,0.171l0.031,0.169l0.032,0.169l0.035,0.168l0.037,0.167l0.038,0.166l0.04,0.164l0.043,0.165l0.044,0.163l0.047,0.162l0.048,0.161l0.05,0.161l0.052,0.159l0.054,0.159l0.056,0.157l0.058,0.157l0.06,0.156l0.062,0.155l0.063,0.153l0.065,0.153l0.068,0.151l0.069,0.151l0.071,0.15l0.073,0.148l0.075,0.148l0.076,0.146l0.079,0.146l0.08,0.144l0.082,0.144l0.084,0.142l0.086,0.141l0.088,0.14l0.089,0.139l0.092,0.138l0.093,0.137l0.095,0.136l0.097,0.135l0.098,0.133l0.101,0.132l0.102,0.132l0.104,0.13l0.106,0.129l0.108,0.127l0.11,0.127l0.111,0.125l0.114,0.125l0.115,0.123l0.117,0.121l0.119,0.121l0.121,0.119l0.122,0.118l0.124,0.117l0.127,0.115l0.128,0.115l0.13,0.112l0.132,0.112l0.133,0.11l0.136,0.109l0.137,0.108l0.139,0.106l0.141,0.105l0.143,0.104l0.145,0.102l0.147,0.101l0.149,0.099l0.15,0.098l0.152,0.096l0.155,0.095l0.156,0.094l0.158,0.092l0.16,0.091l0.162,0.089l0.164,0.087l0.165,0.086l0.168,0.084l0.169,0.083l0.172,0.081l0.173,0.08l0.175,0.078l0.178,0.076l0.179,0.075l0.181,0.072l0.183,0.072l0.185,0.069l0.187,0.068l0.189,0.066l0.19,0.064l0.193,0.062l0.195,0.061l0.196,0.058l0.199,0.057l4.541,1.244l-1.54,5.747l-4.555,-1.193l-0.201,-0.05l-0.2,-0.048l-0.2,-0.045l-0.2,-0.043l-0.199,-0.04l-0.198,-0.038l-0.198,-0.035l-0.197,-0.033l-0.197,-0.031l-0.197,-0.028l-0.195,-0.026l-0.195,-0.023l-0.195,-0.021l-0.194,-0.019l-0.193,-0.016l-0.192,-0.014l-0.192,-0.011l-0.191,-0.01l-0.191,-0.007l-0.19,-0.004l-0.189,-0.003l-0.189,0l-0.188,0.002l-0.187,0.005l-0.186,0.006l-0.185,0.009l-0.185,0.011l-0.184,0.013l-0.184,0.016l-0.182,0.017l-0.182,0.02l-0.181,0.022l-0.18,0.024l-0.179,0.026l-0.178,0.029l-0.178,0.03l-0.177,0.033l-0.175,0.034l-0.175,0.037l-0.175,0.039l-0.173,0.041l-0.172,0.043l-0.171,0.045l-0.171,0.047l-0.169,0.049l-0.169,0.052l-0.168,0.053l-0.166,0.055l-0.166,0.058l-0.165,0.059l-0.164,0.061l-0.163,0.064l-0.161,0.065l-0.161,0.067l-0.16,0.069l-0.159,0.072l-0.157,0.073l-0.157,0.075l-0.156,0.077l-0.154,0.079l-0.154,0.081l-0.152,0.083l-0.152,0.085l-0.15,0.087l-0.149,0.089l-0.148,0.09l-0.147,0.093l-0.146,0.095l-0.144,0.096l-0.144,0.099l-0.143,0.1l-0.141,0.102l-0.14,0.104l-0.138,0.106l-0.138,0.108l-0.136,0.11l-0.136,0.112l-0.134,0.113l-0.132,0.116l-0.132,0.117l-0.13,0.12l-0.129,0.121l-0.127,0.123l-0.127,0.125l-0.125,0.127l-0.123,0.129l-0.123,0.131l-0.121,0.132l-0.12,0.135l-0.118,0.136l-0.117,0.138l-0.115,0.141l-0.114,0.142l-0.113,0.144l-0.111,0.146l-0.11,0.147l-0.108,0.15l-0.107,0.152l-0.106,0.153l-0.103,0.155l-0.103,0.158l-0.101,0.159l-0.099,0.161l-0.098,0.163l-0.096,0.165l-0.094,0.167l-0.093,0.169l-0.091,0.17l-0.09,0.173l-0.088,0.174l-0.086,0.177l-0.084,0.178l-0.083,0.181l-0.081,0.181l-0.08,0.185l-0.077,0.186l-0.076,0.188l-0.074,0.19l-0.072,0.191l-0.07,0.194l-0.069,0.196l-0.066,0.197l-0.065,0.199l-0.062,0.202l-0.061,0.203l-0.059,0.205l-1.246,4.548l-5.746,-1.54l1.194,-4.56l0.051,-0.207l0.049,-0.205l0.046,-0.205l0.044,-0.205l0.04,-0.203l0.038,-0.203l0.036,-0.203l0.033,-0.201l0.03,-0.201l0.028,-0.2l0.025,-0.2l0.023,-0.199l0.02,-0.198l0.017,-0.197l0.016,-0.197l0.012,-0.196l0.011,-0.195l0.008,-0.194l0.005,-0.194l0.003,-0.193l0.001,-0.192l-0.002,-0.191l-0.004,-0.19l-0.006,-0.19l-0.008,-0.188l-0.011,-0.188l-0.013,-0.187l-0.016,-0.187l-0.018,-0.185l-0.019,-0.184l-0.023,-0.184l-0.024,-0.183l-0.027,-0.182l-0.028,-0.181l-0.031,-0.18l-0.033,-0.179l-0.035,-0.178l-0.038,-0.178l-0.039,-0.176l-0.042,-0.175l-0.044,-0.175l-0.045,-0.174l-0.048,-0.172l-0.05,-0.172l-0.052,-0.17l-0.054,-0.17l-0.056,-0.169l-0.058,-0.168l-0.06,-0.166l-0.062,-0.166l-0.064,-0.164l-0.066,-0.164l-0.068,-0.162l-0.07,-0.162l-0.072,-0.16l-0.073,-0.159l-0.076,-0.159l-0.078,-0.157l-0.079,-0.155l-0.082,-0.156l-0.083,-0.153l-0.085,-0.153l-0.087,-0.151l-0.089,-0.15l-0.09,-0.149l-0.093,-0.148l-0.094,-0.147l-0.097,-0.146l-0.098,-0.144l-0.099,-0.143l-0.102,-0.142l-0.103,-0.14l-0.106,-0.14l-0.107,-0.138l-0.108,-0.137l-0.111,-0.135l-0.112,-0.134l-0.113,-0.133l-0.116,-0.132l-0.118,-0.13l-0.119,-0.129l-0.12,-0.127l-0.123,-0.126l-0.124,-0.125l-0.126,-0.123l-0.127,-0.122l-0.129,-0.12l-0.131,-0.119l-0.132,-0.118l-0.134,-0.116l-0.136,-0.115l-0.137,-0.113l-0.139,-0.111l-0.14,-0.11l-0.142,-0.109l-0.144,-0.107l-0.145,-0.105l-0.147,-0.104l-0.148,-0.102l-0.15,-0.101l-0.152,-0.099l-0.153,-0.098l-0.154,-0.095l-0.156,-0.094l-0.158,-0.093l-0.159,-0.091l-0.16,-0.089l-0.162,-0.087l-0.164,-0.086l-0.165,-0.083l-0.167,-0.083l-0.167,-0.08l-0.17,-0.078l-0.171,-0.077l-0.172,-0.075l-0.174,-0.073l-0.175,-0.071l-0.177,-0.07l-0.177,-0.067l-0.18,-0.066l-0.181,-0.063l-0.182,-0.062l-0.184,-0.06l-0.185,-0.058l-0.186,-0.056l-0.188,-0.053l-4.529,-1.242l1.54,-5.745l4.543,1.189l0.19,0.047l0.191,0.045l0.19,0.043l0.191,0.04l0.19,0.039l0.191,0.036l0.19,0.033l0.191,0.031l0.191,0.03l0.19,0.026l0.191,0.025l0.191,0.022l0.19,0.02l0.19,0.018l0.191,0.016l0.19,0.013l0.189,0.011l0.19,0.009l0.19,0.007l0.189,0.005l0.189,0.002l0.189,0.001l0.188,-0.002l0.188,-0.004l0.188,-0.006l0.188,-0.009l0.187,-0.01l0.186,-0.013l0.187,-0.015l0.185,-0.016l0.186,-0.019l0.185,-0.021l0.184,-0.023l0.184,-0.026l0.183,-0.027l0.183,-0.029l0.182,-0.031l0.182,-0.034l0.181,-0.035l0.18,-0.038l0.18,-0.039l0.178,-0.042l0.179,-0.043l0.177,-0.046l0.177,-0.047l0.175,-0.05l0.176,-0.051l0.174,-0.054l0.173,-0.055l0.173,-0.057l0.171,-0.06l0.171,-0.061l0.17,-0.063l0.169,-0.065l0.168,-0.067l0.166,-0.069l0.166,-0.07l0.165,-0.073l0.164,-0.074l0.163,-0.076l0.161,-0.079l0.161,-0.079l0.159,-0.082l0.158,-0.084l0.157,-0.085l0.156,-0.087l0.155,-0.089l0.153,-0.091l0.152,-0.092l0.151,-0.095l0.15,-0.096l0.148,-0.097l0.147,-0.1l0.146,-0.101l0.144,-0.103l0.143,-0.105l0.141,-0.106l0.14,-0.108l0.139,-0.11l0.137,-0.111l0.136,-0.113l0.134,-0.115l0.133,-0.116l0.131,-0.118l0.13,-0.12l0.128,-0.121l0.127,-0.123l0.125,-0.124l0.123,-0.126l0.122,-0.128l0.12,-0.13l0.119,-0.13l0.117,-0.133l0.115,-0.134l0.113,-0.136l0.112,-0.137l0.111,-0.139l0.108,-0.14l0.107,-0.142l0.105,-0.144l0.103,-0.145l0.101,-0.147l0.1,-0.148l0.097,-0.15l0.096,-0.151l0.095,-0.153l0.092,-0.155l0.09,-0.156l0.089,-0.158l0.086,-0.159l0.087,-0.165l0.039,-0.077l0.042,-0.082l0.04,-0.081l0.04,-0.082l0.04,-0.083l0.039,-0.083l0.038,-0.083l0.038,-0.084l0.038,-0.084l0.037,-0.085l0.037,-0.085l0.036,-0.085l0.035,-0.086l0.036,-0.086l0.034,-0.086l0.034,-0.088l0.034,-0.087l0.033,-0.087l0.032,-0.089l0.032,-0.089l0.031,-0.088l0.031,-0.09l0.03,-0.089l0.03,-0.091l0.03,-0.091l0.028,-0.091l0.029,-0.091l0.027,-0.092l0.027,-0.092l0.027,-0.093l0.026,-0.093l1.202,-4.427l5.745,1.521Zm-7.063,13.998l-0.19,0.167l-0.191,0.163l-0.194,0.162l-0.196,0.159l-0.197,0.156l-0.199,0.153l-0.202,0.151l-0.202,0.149l-0.205,0.146l-0.206,0.143l-0.208,0.141l-0.21,0.138l-0.211,0.136l-0.213,0.133l-0.214,0.13l-0.216,0.128l-0.217,0.125l-0.219,0.122l-0.221,0.12l-0.221,0.117l-0.224,0.115l-0.224,0.111l-0.226,0.109l-0.227,0.107l-0.229,0.104l-0.229,0.101l-0.231,0.098l-0.233,0.096l-0.233,0.093l-0.235,0.09l-0.235,0.088l-0.237,0.085l-0.238,0.082l-0.238,0.079l-0.24,0.077l-0.241,0.073l-0.242,0.071l-0.243,0.069l-0.243,0.065l-0.008,0.002l0.079,0.083l0.17,0.184l0.167,0.185l0.164,0.187l0.163,0.19l0.16,0.191l0.157,0.194l0.156,0.195l0.152,0.197l0.15,0.199l0.148,0.201l0.145,0.203l0.143,0.204l0.14,0.206l0.138,0.209l0.135,0.209l0.132,0.212l0.13,0.213l0.127,0.215l0.124,0.217l0.122,0.218l0.119,0.22l0.116,0.221l0.114,0.223l0.111,0.225l0.108,0.226l0.106,0.228l0.102,0.229l0.1,0.231l0.097,0.232l0.094,0.233l0.092,0.235l0.088,0.237l0.086,0.237l0.082,0.239l0.08,0.24l0.077,0.242l0.074,0.242l0.055,0.19l0.128,-0.123l0.184,-0.173l0.187,-0.171l0.189,-0.169l0.19,-0.166l0.193,-0.163l0.194,-0.161l0.197,-0.158l0.198,-0.155l0.2,-0.153l0.201,-0.15l0.204,-0.148l0.205,-0.144l0.207,-0.142l0.209,-0.139l0.21,-0.137l0.212,-0.133l0.214,-0.131l0.215,-0.129l0.217,-0.125l0.218,-0.122l0.22,-0.12l0.222,-0.117l0.223,-0.114l0.224,-0.111l0.226,-0.108l0.227,-0.106l0.229,-0.102l0.229,-0.1l0.232,-0.097l0.232,-0.094l0.234,-0.091l0.235,-0.088l0.236,-0.085l0.238,-0.082l0.239,-0.079l0.24,-0.076l0.24,-0.073l0.242,-0.071l0.069,-0.019l-0.082,-0.088l-0.166,-0.181l-0.163,-0.183l-0.16,-0.185l-0.158,-0.187l-0.155,-0.189l-0.153,-0.19l-0.15,-0.193l-0.148,-0.194l-0.144,-0.196l-0.142,-0.198l-0.14,-0.199l-0.137,-0.201l-0.134,-0.202l-0.131,-0.205l-0.129,-0.206l-0.126,-0.207l-0.124,-0.209l-0.12,-0.21l-0.118,-0.212l-0.115,-0.214l-0.113,-0.215l-0.109,-0.216l-0.107,-0.218l-0.104,-0.219l-0.101,-0.22l-0.098,-0.222l-0.096,-0.223l-0.093,-0.225l-0.09,-0.225l-0.087,-0.227l-0.084,-0.228l-0.081,-0.229l-0.079,-0.231l-0.076,-0.231l-0.072,-0.233l-0.07,-0.233l-0.067,-0.235l-0.04,-0.147l-0.062,0.055Z" style="fill:#c0ffb7;"/><path d="M557.899,175.938l-5.681,1.93l-1.93,-5.681l5.681,-1.93l1.93,5.681Zm3.751,-7.611l5.682,-1.93l5.681,-1.93l1.93,5.681l-5.681,1.93l-5.681,1.93l-1.931,-5.681Zm17.044,-5.79l11.362,-3.86l1.93,5.681l-11.362,3.86l-1.93,-5.681Zm17.043,-5.791l5.681,-1.93l5.681,-1.93l1.93,5.681l-5.681,1.93l-5.681,1.93l-1.93,-5.681Zm17.043,-5.79l5.681,-1.93l5.681,-1.93l1.93,5.681l-5.681,1.93l-5.681,1.93l-1.93,-5.681Zm17.043,-5.79l5.681,-1.93l5.682,-1.931l1.93,5.681l-5.681,1.931l-5.682,1.93l-1.93,-5.681Z" style="fill:#c0ffb7;"/><path d="M607.452,263.781l1.046,0.894l1.036,0.883l1.026,0.872l0.964,0.817l-1.99,2.347l1.99,-2.347l0.052,0.045l1.006,0.85l0.995,0.84l0.984,0.829l0.973,0.817l0.565,0.473l-3.853,4.6l-0.567,-0.475l-0.98,-0.823l-0.99,-0.833l-1,-0.845l-1.011,-0.855l-0.055,-0.047l-0.966,-0.819l-1.032,-0.877l-1.041,-0.887l-1.051,-0.897l-0.488,-0.418l3.901,-4.559l0.486,0.415Zm-13.284,-11.478l1.155,1.007l1.147,0.998l1.139,0.99l0.284,0.246l-1.988,2.291l1.988,-2.291l0.845,0.734l1.122,0.971l1.112,0.962l1.103,0.953l0.348,0.3l-3.918,4.544l-0.349,-0.301l-1.107,-0.956l-1.116,-0.965l-1.125,-0.975l-0.848,-0.735l-0.285,-0.248l-1.142,-0.992l-1.151,-1.001l-1.158,-1.01l-0.796,-0.694l3.946,-4.521l0.794,0.693Zm-13.219,-11.607l1.238,1.093l1.231,1.085l0.945,0.833l0.279,0.246l1.217,1.071l1.21,1.064l1.202,1.056l0.593,0.52l-3.956,4.51l-0.595,-0.521l-1.205,-1.058l-1.212,-1.066l-1.219,-1.073l-0.281,-0.247l1.943,-2.205l-1.943,2.205l-0.946,-0.834l-1.233,-1.088l-1.24,-1.095l-1.083,-0.956l3.973,-4.496l1.082,0.956Zm-12.722,-11.289l2.591,2.307l0.078,0.069l-1.871,2.105l1.871,-2.105l2.491,2.214l1.993,1.769l-3.982,4.488l-1.995,-1.77l-2.493,-2.216l-0.08,-0.071l-2.594,-2.309l-1.81,-1.613l3.992,-4.479l1.809,1.611Zm-13.254,-11.841l2.501,2.24l-1.996,2.229l1.996,-2.229l0.186,0.166l2.669,2.388l1.615,1.443l-3.997,4.474l-1.617,-1.444l-2.672,-2.391l-0.186,-0.167l-2.503,-2.24l-1.967,-1.764l4.004,-4.468l1.967,1.763Zm-8.15,-7.312l1.719,1.544l-4.008,4.464l-1.72,-1.544l-2.745,-2.466l4.01,-4.463l2.744,2.465Z" style="fill:#c0ffb7;"/><path d="M397.105,249.4l-2.649,1.82l-0.187,0.127l-0.374,0.252l-0.387,0.257l-0.395,0.262l-0.402,0.267l-0.411,0.274l-0.205,0.138l-0.208,0.141l-0.209,0.142l-0.21,0.144l-0.211,0.146l-0.211,0.148l-0.212,0.149l-0.212,0.152l-0.213,0.154l-0.212,0.155l-0.212,0.158l-0.212,0.16l-0.211,0.162l-0.211,0.164l-0.21,0.166l-0.209,0.168l-0.208,0.171l-0.209,0.175l-0.1,0.085l-0.102,0.087l-0.102,0.089l-0.101,0.089l-0.101,0.089l-0.101,0.09l-0.1,0.091l-0.099,0.091l-0.099,0.091l-0.098,0.093l-0.098,0.092l-0.097,0.094l-0.097,0.094l-0.096,0.094l-0.095,0.095l-0.095,0.096l-0.094,0.096l-0.093,0.097l-0.093,0.097l-0.092,0.098l-0.091,0.098l-0.09,0.099l-0.089,0.1l-0.089,0.1l-0.088,0.101l-0.086,0.101l-0.086,0.102l-0.086,0.103l-0.084,0.103l-0.083,0.103l-0.083,0.105l-0.081,0.104l-0.081,0.106l-0.079,0.106l-0.079,0.106l-0.077,0.107l-0.077,0.108l-0.075,0.108l-0.075,0.109l-0.073,0.11l-0.073,0.11l-0.071,0.111l-0.07,0.111l-0.069,0.112l-0.068,0.113l-0.067,0.113l-0.065,0.114l-0.065,0.114l-0.063,0.116l-0.062,0.115l-0.061,0.117l-0.06,0.117l-0.058,0.118l-0.058,0.118l-0.056,0.12l-0.055,0.12l-0.053,0.12l-0.053,0.122l-0.051,0.122l-0.049,0.123l-0.049,0.124l-0.047,0.124l-0.046,0.126l-0.044,0.126l-0.043,0.127l-0.042,0.128l-0.041,0.129l-0.04,0.135l-0.164,0.558l-0.172,0.597l-0.179,0.626l-0.184,0.653l-0.19,0.675l-0.193,0.695l-0.196,0.711l-0.199,0.723l-0.2,0.732l-0.2,0.738l-0.201,0.741l-0.199,0.739l-0.393,1.464l-0.378,1.422l-0.358,1.352l-0.332,1.256l-0.298,1.135l-0.258,0.987l-0.371,1.427l-0.888,3.425l-5.808,-1.505l0.889,-3.429l0.373,-1.433l0.259,-0.992l0.3,-1.141l0.333,-1.263l0.36,-1.36l0.381,-1.429l0.395,-1.474l0.201,-0.746l0.202,-0.747l0.202,-0.744l0.202,-0.74l0.201,-0.732l0.199,-0.72l0.197,-0.705l0.192,-0.688l0.189,-0.666l0.183,-0.643l0.178,-0.615l0.173,-0.591l0.057,-0.192l0.062,-0.195l0.063,-0.195l0.066,-0.193l0.067,-0.191l0.069,-0.19l0.072,-0.188l0.073,-0.187l0.075,-0.185l0.077,-0.184l0.078,-0.183l0.081,-0.18l0.082,-0.18l0.083,-0.178l0.085,-0.176l0.087,-0.175l0.089,-0.173l0.09,-0.172l0.091,-0.171l0.093,-0.169l0.094,-0.167l0.096,-0.166l0.097,-0.165l0.098,-0.163l0.1,-0.161l0.101,-0.16l0.102,-0.159l0.103,-0.157l0.104,-0.156l0.106,-0.154l0.106,-0.153l0.108,-0.151l0.108,-0.15l0.11,-0.149l0.11,-0.147l0.112,-0.146l0.112,-0.144l0.113,-0.143l0.114,-0.142l0.115,-0.14l0.115,-0.139l0.116,-0.138l0.118,-0.136l0.117,-0.135l0.118,-0.134l0.119,-0.132l0.12,-0.131l0.12,-0.13l0.12,-0.129l0.121,-0.127l0.122,-0.126l0.122,-0.125l0.122,-0.124l0.123,-0.122l0.123,-0.121l0.123,-0.12l0.124,-0.119l0.124,-0.118l0.124,-0.116l0.125,-0.115l0.125,-0.115l0.125,-0.113l0.125,-0.112l0.125,-0.111l0.125,-0.109l0.125,-0.109l0.126,-0.108l0.128,-0.109l0.248,-0.207l0.25,-0.206l0.25,-0.201l0.25,-0.198l0.249,-0.193l0.247,-0.19l0.247,-0.186l0.245,-0.182l0.243,-0.179l0.242,-0.174l0.239,-0.171l0.238,-0.168l0.235,-0.164l0.232,-0.161l0.229,-0.157l0.226,-0.155l0.223,-0.15l0.221,-0.148l0.425,-0.284l0.41,-0.272l0.391,-0.26l0.371,-0.246l0.349,-0.235l0.162,-0.11l2.637,-1.812l3.398,4.945Z" style="fill:#c0ffb7;"/></g></svg>