<?xml version="1.0" standalone="no"?>
<!DOCTYPE svg PUBLIC "-//W3C//DTD SVG 20010904//EN"
 "http://www.w3.org/TR/2001/REC-SVG-20010904/DTD/svg10.dtd">
<svg version="1.0" xmlns="http://www.w3.org/2000/svg"
 width="540.000000pt" height="811.000000pt" viewBox="0 0 540.000000 811.000000"
 preserveAspectRatio="xMidYMid meet">
<g transform="translate(0.000000,811.000000) scale(0.100000,-0.100000)"
fill="#aaaaaa" stroke="none" opacity="0.1">
<path d="M0 8075 c0 -41 1 -42 283 -287 l197 -173 1 -300 c2 -1144 0 -2361 -5
-2585 -12 -499 -36 -884 -82 -1345 -14 -137 -28 -313 -31 -390 -8 -180 1 -201
111 -259 l49 -26 -2 -277 -2 -276 -186 -191 c-219 -225 -254 -267 -285 -343
-22 -55 -23 -69 -23 -313 l0 -255 30 -54 c17 -32 50 -70 77 -90 l47 -36 0
-437 1 -438 1040 0 1039 0 39 67 c21 38 87 160 147 273 59 113 142 268 184
345 l76 140 3 112 4 113 786 0 c433 0 1038 0 1345 0 l557 0 0 85 0 85 -1345 0
-1345 0 0 103 c0 99 2 107 34 168 62 117 68 152 64 406 -3 257 -8 274 -86 345
-81 73 -20 69 -1052 66 -703 -2 -932 -6 -952 -15 l-28 -13 0 213 0 212 78 23
78 24 48 -30 c112 -71 263 -78 483 -23 174 44 247 43 404 -8 166 -55 219 -65
334 -64 116 1 199 18 328 70 78 31 104 37 172 37 67 1 93 -4 161 -31 172 -68
336 -70 514 -8 153 54 224 54 386 -3 66 -23 156 -47 200 -53 148 -21 303 5
438 73 l58 30 82 -24 c67 -19 104 -23 221 -23 158 1 231 16 286 62 l32 27 -6
106 c-4 58 -17 231 -31 385 -44 492 -73 950 -96 1560 -12 283 -31 2381 -23
2403 4 9 70 12 284 12 l279 0 0 85 0 85 -770 0 -770 0 0 80 0 80 770 0 770 0
0 90 0 90 -2412 0 -2413 1 -204 174 -204 175 -83 0 -84 0 0 -35z m740 -571 c0
-65 -2 -75 -16 -70 -9 3 -29 6 -45 6 l-29 0 0 70 0 70 45 0 45 0 0 -76z m530
-4 l0 -80 -200 0 -200 0 0 80 0 80 200 0 200 0 0 -80z m674 58 c3 -13 6 -49 6
-80 l0 -58 -260 0 -260 0 0 80 0 80 254 0 254 0 6 -22z m636 -58 l0 -80 -240
0 -240 0 0 80 0 80 240 0 240 0 0 -80z m590 0 l0 -80 -216 0 c-193 0 -215 2
-210 16 3 9 6 45 6 80 l0 64 210 0 210 0 0 -80z m534 43 c3 -21 6 -57 6 -80
l0 -43 -185 0 -185 0 0 80 0 80 179 0 178 0 7 -37z m-2868 -312 c82 -49 145
-65 244 -59 58 3 92 11 131 31 29 14 53 25 54 24 0 -1 -4 -632 -10 -1402 -5
-770 -8 -1414 -6 -1432 3 -35 28 -51 47 -31 13 14 34 395 54 998 6 168 15 411
20 540 19 450 29 696 35 875 7 225 17 469 19 472 1 1 35 -15 76 -35 73 -37 75
-37 199 -37 117 0 130 2 185 28 46 21 61 25 68 15 4 -7 8 -251 9 -543 0 -291
2 -537 4 -546 1 -9 6 -446 10 -972 5 -670 11 -963 19 -978 14 -28 27 -33 48
-17 14 11 17 58 22 368 9 473 24 1509 32 2173 4 295 9 537 11 537 3 0 18 -9
34 -20 116 -83 279 -85 401 -5 l37 24 3 -117 c2 -64 5 -252 6 -417 1 -165 7
-565 12 -889 11 -628 12 -636 59 -636 41 0 45 21 52 298 12 414 29 1325 29
1550 0 111 2 202 4 202 2 0 28 -12 57 -27 46 -24 65 -28 140 -28 80 0 92 3
159 37 41 21 74 37 76 35 2 -3 30 -1253 54 -2452 10 -539 22 -1090 25 -1225 3
-135 6 -348 7 -475 l3 -229 -90 -24 c-121 -32 -207 -26 -330 20 l-90 34 -7
119 c-3 66 -12 395 -18 730 -14 707 -18 773 -42 789 -13 8 -21 7 -32 -4 -13
-12 -18 -87 -31 -390 -18 -440 -45 -1163 -45 -1202 0 -23 -5 -27 -42 -33 -24
-4 -89 -25 -144 -46 -196 -74 -331 -77 -523 -13 -63 20 -115 44 -120 53 -5 9
-14 194 -21 411 -14 454 -16 474 -48 478 -15 2 -25 -4 -31 -20 -5 -13 -14
-149 -21 -303 -6 -154 -13 -341 -17 -416 l-6 -137 -66 -6 c-36 -4 -123 -20
-192 -36 -145 -34 -259 -39 -332 -14 l-47 16 -2 356 c-2 197 -5 692 -7 1102
-1 410 -6 946 -9 1192 -6 399 -9 449 -24 464 -23 23 -46 11 -52 -28 -3 -18
-17 -436 -31 -928 -36 -1253 -44 -1576 -45 -1805 0 -110 -3 -224 -6 -253 l-7
-52 -49 -15 c-76 -22 -162 -29 -188 -15 -22 12 -23 15 -17 114 4 55 20 259 36
451 69 799 81 1213 81 2688 l0 1127 61 0 c52 0 69 -5 125 -39z m3309 7 c2 -7
9 -463 15 -1013 11 -1024 16 -1263 50 -2270 11 -319 23 -695 26 -837 l7 -256
-82 -26 c-67 -21 -101 -26 -189 -26 -94 0 -118 4 -192 31 -143 51 -212 68
-286 68 l-71 1 -7 158 c-41 998 -69 2369 -74 3631 -1 282 -5 517 -8 522 -9 15
4 10 64 -22 52 -28 64 -30 132 -27 58 2 87 9 127 31 29 15 54 27 57 27 2 0 7
-105 10 -232 21 -736 43 -1320 81 -2123 33 -703 44 -867 57 -882 14 -17 43
-16 58 2 13 16 11 265 -10 1310 -5 248 -12 594 -15 770 -3 176 -10 493 -15
705 -6 212 -10 404 -10 428 l0 42 135 0 c100 0 137 -3 140 -12z m520 3 c3 -6
7 -412 9 -903 3 -859 8 -1081 41 -1893 19 -471 81 -1404 100 -1522 4 -24 1
-34 -13 -42 -53 -28 -187 -22 -323 16 -57 16 -58 17 -63 57 -6 46 -40 934 -56
1471 -15 476 -17 1100 -6 2038 l8 787 149 0 c82 0 150 -4 154 -9z m-2059
-5116 c16 -41 -11 -90 -144 -268 -162 -215 -212 -268 -268 -285 -31 -9 -275
-12 -1008 -12 -531 0 -966 2 -966 5 0 42 448 507 530 550 l45 24 903 1 c795 0
903 -2 908 -15z m27 -467 c-22 -62 -238 -437 -282 -488 l-30 -35 -1 155 0 155
163 210 162 210 3 -77 c2 -54 -2 -92 -15 -130z m-425 -413 c-3 -161 -5 -187
-21 -202 -17 -17 -71 -18 -941 -21 -999 -3 -979 -4 -1020 51 -19 26 -21 44
-24 193 l-3 164 1006 0 1006 0 -3 -185z m340 -260 l-4 -90 -134 -250 c-73
-137 -142 -267 -153 -288 -10 -20 -21 -37 -23 -37 -2 0 -4 117 -4 259 l0 259
44 26 c64 37 146 115 213 203 l58 76 3 -34 c2 -19 2 -74 0 -124z m-488 -510
l0 -375 -852 2 -853 3 -3 373 -2 372 855 0 855 0 0 -375z"/>
</g>
</svg>
