<?xml version="1.0" encoding="utf-8"?>
<!-- Generator: Adobe Illustrator 25.2.3, SVG Export Plug-In . SVG Version: 6.00 Build 0)  -->
<svg version="1.1" id="face" xmlns="http://www.w3.org/2000/svg" xmlns:xlink="http://www.w3.org/1999/xlink" x="0px"
	 y="0px" viewBox="0 0 963.26 892.14" style="enable-background:new 0 0 963.26 892.14;" xml:space="preserve">
<path d="M68.3,502.3c22.5,89.8,55.8,178.9,114.7,251.5c26.4,32.5,57.7,61.3,93.3,83.6c39,24.4,82.4,38.9,127.8,46.2
	c94.1,15.2,195.4,12.5,282.7-29.4c38.5-18.5,73.8-44.7,100.6-78c27.5-34.1,45.8-74.2,58.8-115.8c13.1-41.8,21.2-85.1,28.8-128.2
	c8.3-47.2,13-95.3,8.8-143.2c-1.1-12.6-2.8-25.2-5-37.7c-1.7-9.5-16.1-5.5-14.5,4c8.3,46.9,7.5,94.8,1.1,141.9
	c-5.8,42.9-14.1,85.4-24.7,127.3c-10.3,40.7-24.2,80.8-46.6,116.6c-22,35.2-52.4,64.1-87.9,85.6c-79.5,48.1-175.1,56.2-265.8,46.7
	c-45.5-4.7-90.7-14.1-131.8-34.9c-36.3-18.4-68.5-43.9-96.2-73.6C151.6,699.6,115.5,616,91.5,531.1c-3.1-10.9-6-21.8-8.7-32.8
	C80.4,489,66,492.9,68.3,502.3L68.3,502.3z"/>
<path d="M875.6,521.1c7.7-11.8,18.1-23.3,31.8-28c11-3.8,24.2-2.6,33.2,5.3c11.4,9.8,8.8,25.7,1.4,37.2c-8.9,13.6-24.1,22.5-37,31.8
	l-53.2,37.9c-7.8,5.6-0.3,18.6,7.6,13l55.6-39.6c15.8-11.2,33.8-22.5,42.8-40.3c8-16,8.2-35.9-5.1-49.2
	c-11.2-11.1-28.3-15.2-43.5-12c-20.1,4.2-35.6,19.9-46.4,36.5C857.3,521.7,870.3,529.2,875.6,521.1L875.6,521.1z"/>
<path d="M113.7,616.9c-18.2-4.3-38.4-8.6-56.3-0.9c-14,6-26.3,19.7-26,35.7c0.3,17.4,15.1,30.6,27.7,40.6
	c13.3,10.6,28.1,19.1,44,25.2c18.1,7,37.3,10.7,56.6,10.9c9.6,0.2,9.7-14.8,0-15c-28.1-0.5-55.4-8.8-79-24
	c-11.2-7.1-23.8-16.2-30.9-27.7s-1.4-23.3,9.3-29.9c15.1-9.2,34.6-4.2,50.6-0.5C119.1,633.5,123.1,619,113.7,616.9L113.7,616.9z"/>
<path d="M314.8,67.8c-25.5-3.4-51.4-6.3-77.2-4.5c-23,1.7-45.6,7.4-66.6,16.9C130.3,98.4,95,128.9,66.1,162.5
	C38.5,194.7,18,231.8,8.2,273.3c-9,38.6-9.6,78.8-1.7,117.6c8.8,43.5,28.4,84.6,57.5,118.2c1.9,1.9,4.7,2.7,7.3,1.9
	c48.9-12.6,93.5-38.3,129-74.2c7-7.1-3.2-16.5-10.6-10.6l-80.9,64.2c-2.6,2-2.7,6.5-1.2,9.1c1.8,3.1,5.2,4,8.5,3.4
	c72.7-12.4,138.3-56.3,179.9-116.9c11.7-17.1,21.3-35.6,28.7-55l-14.5-4c-15.8,48.4-46.1,90.7-86.8,121.3c-3.3,2.4-4.9,6.5-2.7,10.3
	c1.8,3.2,7,5.1,10.3,2.7c43.9-32.7,76.7-78.2,93.7-130.2c3-9.3-11.1-12.8-14.5-4c-24.9,64.9-77.9,117.7-141.6,144.9
	c-18.1,7.7-37.1,13.3-56.5,16.5l7.3,12.5l80.9-64.2l-10.6-10.6c-33.6,34.2-76,58.5-122.4,70.4l7.3,1.9C26,442.3,6.7,362.9,20,290.2
	c7-38.5,23.3-74.7,47.3-105.5c26-33.6,59-64,96.6-84.2c21.1-11.3,44.1-19.2,68-21.6c27.7-2.8,55.5,0.3,83,4c4,0.5,7.5-3.8,7.5-7.5
	C322.4,70.8,318.9,68.3,314.8,67.8L314.8,67.8z"/>
<path d="M382.3,292.8c-18.2,49.7-45,95.8-79.2,136.1c-2.6,3.1-1.1,8.3,2,10.4c3.6,2.5,7.8,1.1,10.4-2c35-41.4,62.4-88.7,80.9-139.6
	C399.7,288.7,385.6,283.7,382.3,292.8L382.3,292.8z"/>
<path d="M490.4,298.4c-4.6,21.8-8.4,44-14.4,65.4c-5.2,18.4-12.9,36.3-28.5,48.2c-7.7,5.9,2.5,16.9,10.1,11.1
	c16.6-12.7,25.9-32,31.8-51.6c6.7-22.4,10.5-45.7,15.3-68.6c0.8-3.9-0.8-8.1-4.9-9.4C496.2,292.3,491.2,294.4,490.4,298.4
	L490.4,298.4z"/>
<path d="M544.9,306.9c2.1,29.1,12,57.1,28.7,81.1c5.5,7.9,17.3-1.4,11.8-9.3c-15.1-21.8-24-47.4-25.7-73.9
	C559.1,295.2,544.2,297.3,544.9,306.9z"/>
<path d="M619,309.7c65.7,50.5,152.1,57.3,231.4,44.3c24.9-4.3,49.6-9.8,74-16.6c6.8-1.9,6.8-13.7-0.7-14.4
	c-47.3-4.8-93.9-15.1-138.8-30.8c-3.9-1.3-8.1,2.1-9,5.7c-1,4.3,1.9,7.6,5.7,9c44.9,15.7,91.5,26,138.8,30.8l-0.7-14.4
	c-76.6,20.9-160.8,34.1-237.2,4.9c-19.2-7.2-37.2-17.1-53.5-29.5C621.5,292.8,611.3,303.9,619,309.7L619,309.7z"/>
<path d="M532,47c62.9-36.1,142.7-39.4,209.2-11c66.1,28.1,113.3,87.7,130.5,156.9c9.5,38.3,9.6,78.7-0.9,116.7
	c-2.6,9.3,11.9,13.3,14.5,4c19.9-72.1,3.9-152.6-40-212.9C822.9,70,793.8,44.8,759.7,28C725.2,11.2,687.2,2.3,648.8,2
	c-43.4-0.3-86.7,10.4-124.4,32C516.1,38.8,523.6,51.8,532,47L532,47z"/>
<path d="M361.5,470.9c-63.6,0.4-124.4,26.3-168.8,71.9c-5.3,5.6,3,14.1,8.4,8.6c42-43.4,99.7-68,160.1-68.5
	C368.9,482.8,369.1,470.8,361.5,470.9L361.5,470.9z"/>
<path d="M612.7,446.2c56.1-15.4,118.6-30.5,173.6-3.2c6.9,3.4,11.2-7.8,4.4-11.2c-57-28.3-121.8-13.5-179.9,2.5
	C603.3,436.3,605.3,448.2,612.7,446.2z"/>
<path d="M443.8,558.5c4.9,18,6.5,36.3,6.8,54.9c0.1,7.4,1.8,17.7-6.1,21.6s-17.3,6.1-25.7,8.8c-37,11.5-75,19.3-113.5,23.5
	c-9.4,1-19,2.1-28.5,2.3c-9,0.2-15-2.6-20.7-9.5c-5.9-7.3-11.2-15.1-16-23.1c-4-6.6-11-15.5-9.1-23.8c1.5-6.4,7.8-10.6,13.3-13.5
	c7.1-3.8,14.9-6.3,22.5-8.9c18-6.3,36.3-11.6,54.8-16.1c41.9-10,85-14.5,128.1-11.7c7.7,0.5,7.7-11.5,0-12
	c-42.5-2.7-85.2,1.7-126.7,11.1c-21,4.8-41.7,10.8-62,18c-14.5,5.1-33.4,10.8-40.1,26.1c-3.8,8.7-1.7,17.6,2.5,25.7
	c4.9,9.2,10.4,18.1,16.6,26.5c5.3,7.4,10.9,15.9,19.4,20c8.8,4.2,18.6,3.3,28.1,2.6c43.1-3.3,85.8-11.1,127.3-23.3
	c11-3.3,22.4-6.5,33-10.9c9.7-4.1,14.1-11.8,14.8-22.1c1.4-23.3-1-46.7-7.1-69.2C453.3,547.9,441.7,551.1,443.8,558.5L443.8,558.5z"
	/>
<path d="M580.4,522.1c0.1,19.6,0.2,39.1,0.2,58.7c0,8.5-1.2,18.2,0.7,26.6c2.1,9,9.9,11.8,18.1,12.9c33.1,4.3,65.6,3.8,98.1-3.8
	c19.2-4.4,38.1-9.8,57.1-15c8.1-2.2,18.1-3.2,21.1-12.4c2.8-8.7,2.8-19.3,3.2-28.3c0.5-10.1,0.3-20.2-0.6-30.2
	c-0.7-7.6-2-15.5-6.9-21.6c-5.3-6.7-13.4-8.8-21.6-9.4c-9.8-0.7-19.9-0.3-29.7,0c-45.5,1.1-90.9,6.7-135.3,16.8
	c-7.5,1.7-4.3,13.3,3.2,11.6c35.2-8,71-13.1,107.1-15.3c17.4-1.1,35-1.7,52.4-1.1c7.2,0.2,14,1.6,16.9,9.1
	c2.7,7.2,2.6,15.6,2.8,23.1c0.2,8.9,0,17.8-0.8,26.6c-0.4,4.2-0.8,8.4-1.5,12.6c-0.8,4.9-4,4.6-8.5,5.8c-17.6,4.7-35.3,9.5-53,14
	c-27.2,7-54.3,9.8-82.3,7.8c-4.7-0.3-9.4-0.8-14.1-1.3c-3.6-0.4-10.1,0.1-12.8-2.6s-1.4-8.8-1.4-12.2l-0.1-14.5
	c-0.1-19.2-0.1-38.5-0.2-57.8C592.4,514.3,580.4,514.3,580.4,522.1L580.4,522.1z"/>
<path d="M468.7,597.2c31.5-17.5,68.3-23,103.6-15.6c7.5,1.6,10.8-10,3.2-11.6c-38.4-8.2-78.5-2.3-112.8,16.7
	C455.9,590.6,462,600.9,468.7,597.2L468.7,597.2z"/>
<path d="M231,625.9c-19.9-6.6-40.2-11.9-61-14.7s-41.9-3.3-63-3.4c-7.7,0-7.7,12,0,12c20.4,0.1,41,0.4,61.3,3.2s40.1,8.1,59.6,14.5
	C235.1,639.9,238.3,628.3,231,625.9L231,625.9z"/>
<path d="M781,540.7c33-18,68.3-31.5,105-40c7.5-1.7,4.3-13.3-3.2-11.6c-37.7,8.8-74,22.6-107.9,41.2
	C768.1,534,774.2,544.4,781,540.7L781,540.7z"/>
<circle cx="349.3" cy="616.8" r="10.8"/>
<circle cx="680.7" cy="562.5" r="10.8"/>
<g>
	<g>
		<path d="M523.4,728.9c-9.4,12.6-14.8,27.7-16.1,43.3c-1.1,13.6,0,34.3,13.8,41.5c6.3,3.3,14.2,3,19.5-2.1
			c5.4-5.1,8.2-13.2,10.8-19.9c5.9-15.2,10.5-34.1,8.5-50.5c-2.2-17.5-22.6-26.2-35.6-13.5c-5.6,5.4,2.9,13.9,8.5,8.5
			c4.5-4.4,11.2-3.2,14.1,2.4c3.1,5.8,1.1,15.3,0.3,21.5c-1,7.6-2.8,15.2-5.3,22.5c-2.1,6.2-4.4,14.6-8.9,19.5
			c-5.3,5.8-10.8-3.2-12.1-7.7c-1.9-6.7-2.3-13.8-1.8-20.7c0.8-14.1,6.1-27.5,14.5-38.9C538.3,728.8,527.9,722.8,523.4,728.9
			L523.4,728.9z"/>
	</g>
</g>
</svg>
