<?xml version="1.0" encoding="utf-8"?><svg id="face" data-name="why are you checking on me" xmlns="http://www.w3.org/2000/svg" viewBox="0 0 963.26 892.14"><path d="M91.08,541.69c22.49,89.77,55.82,178.9,114.69,251.5,26.39,32.55,57.73,61.34,93.29,83.62,39,24.44,82.43,38.94,127.75,46.24,94.1,15.16,195.44,12.49,282.67-29.44,38.45-18.49,73.77-44.69,100.61-78,27.47-34.1,45.84-74.17,58.82-115.78C882,658,890.11,614.68,897.72,571.58c8.33-47.24,13-95.3,8.78-143.23q-1.66-18.94-5-37.69c-1.67-9.49-16.13-5.47-14.46,4,8.27,46.9,7.45,94.82,1.11,141.9A1140.55,1140.55,0,0,1,863.41,663.9c-10.31,40.7-24.23,80.85-46.62,116.6-22,35.21-52.41,64.08-87.89,85.56-79.49,48.12-175.12,56.16-265.77,46.74-45.46-4.72-90.74-14.11-131.76-34.93-36.27-18.42-68.49-43.93-96.18-73.63C174.39,739,138.27,655.36,114.25,570.49c-3.08-10.88-6-21.82-8.71-32.79-2.34-9.35-16.81-5.39-14.46,4Z" transform="translate(-22.77 -39.36)"/><path d="M898.34,560.47c7.67-11.77,18.13-23.31,31.79-28,11-3.78,24.16-2.57,33.21,5.27,11.37,9.85,8.83,25.74,1.36,37.19-8.87,13.59-24.08,22.53-37,31.75l-53.16,37.91c-7.79,5.56-.31,18.58,7.58,13l55.57-39.64c15.75-11.23,33.84-22.45,42.8-40.32,8-16,8.16-35.88-5.14-49.16-11.17-11.14-28.34-15.16-43.55-12-20.1,4.19-35.6,19.86-46.4,36.45-5.28,8.12,7.7,15.64,13,7.57Z" transform="translate(-22.77 -39.36)"/><path d="M136.43,655.21c-18.25-4.26-38.37-8.58-56.35-.93-14,6-26.34,19.69-26,35.67.34,17.37,15.08,30.57,27.69,40.57a169.1,169.1,0,0,0,44,25.21,163.39,163.39,0,0,0,56.65,10.93c9.65.15,9.66-14.85,0-15a150.71,150.71,0,0,1-79-24C92.24,720.56,79.57,711.42,72.49,700s-1.41-23.34,9.33-29.88c15.13-9.21,34.59-4.23,50.63-.49,9.39,2.19,13.4-12.27,4-14.46Z" transform="translate(-22.77 -39.36)"/><path d="M336.6,106.17c-25.55-3.42-51.4-6.35-77.21-4.49a197.81,197.81,0,0,0-66.6,16.93c-40.72,18.14-76.06,48.62-104.88,82.24C60.28,233.08,39.79,270.2,30,311.65a275.68,275.68,0,0,0-1.66,117.64c8.79,43.52,28.42,84.59,57.54,118.16a7.44,7.44,0,0,0,7.29,1.93,278.57,278.57,0,0,0,129-74.25c7-7.06-3.23-16.46-10.6-10.6l-80.89,64.22c-2.56,2-2.71,6.45-1.17,9.09,1.79,3.06,5.16,4,8.47,3.44,72.66-12.4,138.34-56.3,179.86-116.89a265,265,0,0,0,28.7-55l-14.47-4a247.59,247.59,0,0,1-86.79,121.28c-3.27,2.44-4.85,6.46-2.69,10.26,1.83,3.22,7,5.11,10.26,2.69a264.89,264.89,0,0,0,93.69-130.24c3-9.32-11.07-12.83-14.47-4-24.92,64.86-77.88,117.73-141.57,144.9A252.23,252.23,0,0,1,134,526.82l7.3,12.54,80.88-64.23-10.6-10.6A263.69,263.69,0,0,1,89.16,534.92l7.29,1.93c-48.73-56.19-68-135.55-54.71-208.31A242.77,242.77,0,0,1,89.06,223c26-33.63,59-64,96.59-84.23,21.06-11.32,44.12-19.19,68-21.61,27.68-2.8,55.52.31,83,4,4,.54,7.5-3.83,7.5-7.5,0-4.5-3.47-7-7.5-7.5Z" transform="translate(-22.77 -39.36)"/><path d="M400.1,330.09a449.87,449.87,0,0,1-69.78,141.2c-2.42,3.29-.52,8.34,2.69,10.27,3.78,2.26,7.88.55,10.26-2.69a461.77,461.77,0,0,0,71.3-144.79c2.69-9.29-11.78-13.26-14.47-4Z" transform="translate(-22.77 -39.36)"/><path d="M494.17,336.77c2.17,22.17,5.2,44.45,5.86,66.72.57,19.12-1.46,38.46-12.76,54.48-5.57,7.91,7.43,15.41,13,7.57,12-17.1,15.16-38.3,14.88-58.79-.33-23.35-3.67-46.76-5.94-70-.39-4-3.16-7.5-7.5-7.5-3.75,0-7.89,3.45-7.5,7.5Z" transform="translate(-22.77 -39.36)"/><path d="M573,343.76A161.92,161.92,0,0,0,590.41,428c4.37,8.61,17.31,1,13-7.57A146.88,146.88,0,0,1,588,343.76c.65-9.64-14.35-9.6-15,0Z" transform="translate(-22.77 -39.36)"/><path d="M642.73,341.69c63.18,53.63,149.19,64.58,229,55.33a738.76,738.76,0,0,0,74.73-13c6.88-1.53,7.42-13.36,0-14.46a602.58,602.58,0,0,1-137.14-37.42c-3.79-1.53-8.21,1.66-9.23,5.24-1.22,4.27,1.5,7.71,5.24,9.22A602.06,602.06,0,0,0,942.49,384V369.58c-77.56,17.19-162.25,26.37-237.17-6.46a210.6,210.6,0,0,1-52-32c-7.32-6.21-18,4.35-10.61,10.61Z" transform="translate(-22.77 -39.36)"/><path d="M551.73,84.33c62.93-36.14,142.66-39.4,209.21-11C827,101.46,874.2,161,891.44,230.21c9.54,38.27,9.63,78.65-.86,116.72-2.57,9.32,11.9,13.3,14.46,4,19.89-72.13,3.88-152.55-40-212.86-22.33-30.67-51.46-55.88-85.56-72.67a256,256,0,0,0-110.92-26c-43.36-.32-86.72,10.39-124.37,32-8.37,4.81-.83,17.77,7.57,13Z" transform="translate(-22.77 -39.36)"/><path d="M391,531.94A237.83,237.83,0,0,0,209.64,560c-6.55,4.06-.53,14.44,6.06,10.37a225.5,225.5,0,0,1,172.06-26.9c7.49,1.88,10.69-9.69,3.19-11.57Z" transform="translate(-22.77 -39.36)"/><path d="M637.13,494.4C691.4,473.39,752,452,809.51,473.59c7.24,2.72,10.36-8.88,3.19-11.57-59.54-22.37-122.54-1-178.76,20.81-7.12,2.75-4,14.36,3.19,11.57Z" transform="translate(-22.77 -39.36)"/><path d="M295,667.62c46.84,22.45,104.66,14.89,144.14-18.87,5.88-5-2.64-13.48-8.48-8.48-35.11,30-87.94,37-129.61,17-6.93-3.32-13,7-6.05,10.36Z" transform="translate(-22.77 -39.36)"/><path d="M647,607.94a128.62,128.62,0,0,0,107.31-2.65c6.93-3.41.86-13.76-6.06-10.36a115.59,115.59,0,0,1-95.2,2.65c-7-3-13.14,7.33-6,10.36Z" transform="translate(-22.77 -39.36)"/><path d="M466.52,598.87c4.87,18,6.47,36.34,6.75,54.94.11,7.42,1.77,17.66-6.11,21.62s-17.26,6.14-25.68,8.75A600.25,600.25,0,0,1,328,707.68c-9.44,1-19,2.11-28.51,2.27-9,.15-15-2.61-20.74-9.54a206.58,206.58,0,0,1-16-23.13c-4.05-6.61-11-15.53-9.05-23.75,1.49-6.43,7.85-10.62,13.28-13.55,7.08-3.82,14.88-6.27,22.46-8.9A565,565,0,0,1,344.22,615c41.93-9.95,85-14.48,128.09-11.74,7.71.49,7.68-11.52,0-12-42.51-2.71-85.24,1.66-126.72,11.11a565.7,565.7,0,0,0-62,18c-14.45,5.09-33.35,10.75-40.1,26.11-3.81,8.68-1.67,17.57,2.51,25.71a213.14,213.14,0,0,0,16.57,26.46c5.32,7.42,10.92,15.91,19.41,20,8.8,4.23,18.65,3.35,28.08,2.62A615.09,615.09,0,0,0,437.4,698c11.05-3.27,22.41-6.47,33-10.93,9.7-4.06,14.09-11.81,14.78-22.1a216.12,216.12,0,0,0-7.12-69.24c-2-7.45-13.6-4.29-11.58,3.19Z" transform="translate(-22.77 -39.36)"/><path d="M604.19,561.46q.15,29.34.22,58.67c0,8.51-1.24,18.25.71,26.58,2.11,9,9.88,11.79,18.08,12.86,33.08,4.3,65.57,3.75,98.14-3.79,19.16-4.43,38.12-9.85,57.11-14.95,8.08-2.16,18.13-3.17,21.06-12.37,2.77-8.69,2.8-19.31,3.23-28.34a217.88,217.88,0,0,0-.58-30.23c-.7-7.61-2-15.46-6.92-21.6-5.33-6.71-13.4-8.85-21.62-9.38-9.85-.65-19.87-.27-29.74,0A686.29,686.29,0,0,0,608.6,555.68c-7.53,1.7-4.34,13.27,3.19,11.57a669.94,669.94,0,0,1,107.06-15.33c17.41-1.06,35-1.69,52.42-1.12,7.23.24,14.05,1.59,16.87,9.05,2.7,7.16,2.56,15.6,2.77,23.13a230,230,0,0,1-.82,26.64c-.38,4.19-.79,8.42-1.51,12.58-.85,4.9-4,4.57-8.54,5.78-17.64,4.74-35.28,9.51-53,14-27.16,7-54.32,9.84-82.33,7.78q-7-.52-14.06-1.33c-3.62-.41-10.11.13-12.79-2.62s-1.42-8.85-1.43-12.15l-.06-14.5q-.1-28.87-.21-57.75c0-7.72-12-7.73-12,0Z" transform="translate(-22.77 -39.36)"/><path d="M491.49,636.57A149.84,149.84,0,0,1,595.05,621c7.53,1.61,10.75-9.95,3.19-11.57a162.76,162.76,0,0,0-112.81,16.74c-6.75,3.75-.7,14.12,6.06,10.36Z" transform="translate(-22.77 -39.36)"/><path d="M253.75,665.25c-19.93-6.59-40.19-11.9-61-14.71s-41.94-3.31-63-3.39c-7.72,0-7.73,12,0,12,20.44.08,41,.42,61.27,3.16s40.12,8.09,59.55,14.51c7.34,2.43,10.5-9.15,3.19-11.57Z" transform="translate(-22.77 -39.36)"/><path d="M803.75,580.05a413.48,413.48,0,0,1,105-40c7.52-1.74,4.34-13.32-3.19-11.57a425.5,425.5,0,0,0-107.91,41.17c-6.78,3.7-.73,14.07,6.06,10.36Z" transform="translate(-22.77 -39.36)"/><path d="M512.68,824.75a176.32,176.32,0,0,0,68.93,5.55c7.58-.9,7.67-12.91,0-12a167.33,167.33,0,0,1-65.74-5.12c-7.44-2.11-10.62,9.46-3.19,11.57Z" transform="translate(-22.77 -39.36)"/></svg>