<svg id="Layer_1" data-name="Layer 1" xmlns="http://www.w3.org/2000/svg" viewBox="0 0 625.34 816.88"><g id="portrait"><path d="M108.3,286.9c11.8,46.8,29.2,93,60.1,130.7,13.9,16.9,30.4,31.9,49.1,43.3,20.1,12.3,42.4,19.6,65.6,23.2,48.8,7.7,100.8,6.2,146-15.6,19.7-9.5,38-23,51.8-40,14.3-17.6,24-38.2,30.8-59.8,7.8-24.6,12.7-50.4,16.6-75.9,4.4-28.3,5.3-56.7.4-85-1.7-9.5-16.1-5.5-14.5,4,4.1,23.5,3.7,47.5.5,71a583.92,583.92,0,0,1-12.5,64.3C497,367.7,490,388,478.6,406a131.89,131.89,0,0,1-43.7,42.3c-40,24.1-87.9,27.9-133.4,23.1-22.6-2.4-45.2-7.1-65.6-17.4a172.76,172.76,0,0,1-47.6-36.4c-34.9-37.2-53.4-86.1-65.6-134.8-2.3-9.3-16.8-5.3-14.4,4.1Z" transform="translate(-44.06 -25.99)"/><path d="M526.8,297.4c4.2-6.4,10.6-13.3,18.8-13.5,6.9-.2,13,4.5,11.2,11.8-2.1,8.8-11.5,14.2-18.3,19.1-9.6,6.9-19.2,13.7-28.8,20.6-7.8,5.6-.3,18.6,7.6,13,12.7-9.1,25.8-17.8,38.1-27.3,10.3-7.9,19.8-20.3,16.1-34.1-3.1-11.5-14.9-18.4-26.4-17.9-13.5.6-24,10.2-31.1,20.9-5.5,7.9,7.5,15.4,12.8,7.4Z" transform="translate(-44.06 -25.99)"/><path d="M136,340.3c-12.6-2.9-26.5-5.1-37.4,3.5-9.8,7.7-12,20.6-4.5,30.7,14.4,19.3,40.9,29.4,64.4,29.9,9.7.2,9.7-14.8,0-15-16.8-.4-33.5-6.4-46.2-17.5-4.7-4.1-11.3-9.8-5.3-15.6,6.5-6.3,17.3-3.2,25-1.5,9.4,2.1,13.4-12.3,4-14.5Z" transform="translate(-44.06 -25.99)"/><path d="M237.1,60.1c-25.7-3.4-50.6-4-74.8,6.6C141,76.1,122.5,92,107.5,109.6a140.11,140.11,0,0,0-31.2,120,136.31,136.31,0,0,0,30.3,61.9,7.27,7.27,0,0,0,7.3,1.9,146.84,146.84,0,0,0,67.4-38.8c7-7-3.2-16.5-10.6-10.6-13.8,10.9-27.5,21.8-41.3,32.8-6.5,5.2.8,13.7,7.3,12.5,49.1-8.5,91-44,109-90.2-4.8-1.3-9.6-2.7-14.5-4a123.56,123.56,0,0,1-42.6,59.7c-3.3,2.4-4.9,6.5-2.7,10.3,1.8,3.2,7,5.1,10.3,2.7a140.33,140.33,0,0,0,49.5-68.6c3.1-9.3-11-12.8-14.5-4-16.1,41.6-54.8,72.2-98.5,79.8,2.4,4.2,4.9,8.4,7.3,12.5,13.8-10.9,27.5-21.8,41.3-32.8l-10.6-10.6a131.79,131.79,0,0,1-60.8,35c2.4.6,4.9,1.3,7.3,1.9-24.1-28-33.7-67.6-26.8-103.7,7.5-39.5,36.3-74.6,71.4-93.5a90.63,90.63,0,0,1,33.6-10.7c13.9-1.3,27.9.3,41.6,2.1,4,.5,7.5-3.8,7.5-7.5.1-4.6-3.4-7.1-7.4-7.6Z" transform="translate(-44.06 -25.99)"/><path d="M265.9,177a228.89,228.89,0,0,1-35.2,71.2c-2.4,3.3-.5,8.3,2.7,10.3,3.8,2.3,7.9.6,10.3-2.7a240.82,240.82,0,0,0,36.7-74.7c2.7-9.4-11.8-13.4-14.5-4.1Z" transform="translate(-44.06 -25.99)"/><path d="M313.8,181.4c1.1,11,2.6,22.1,3,33.2.4,9.5-.5,18.8-6,26.8s7.5,15.5,13,7.6c13.3-19.3,7.2-45.9,5.1-67.5-.4-4-3.2-7.5-7.5-7.5-3.9-.1-8,3.3-7.6,7.4Z" transform="translate(-44.06 -25.99)"/><path d="M354,184.9a86.94,86.94,0,0,0,9.4,44.8c4.3,8.6,17.3,1,13-7.6a72.48,72.48,0,0,1-7.3-37.2c.5-9.6-14.5-9.6-15.1,0Z" transform="translate(-44.06 -25.99)"/><path d="M390.7,186.5c44.5,37.5,105,34.4,158.5,22.6,6.9-1.5,7.4-13.3,0-14.5a310.33,310.33,0,0,1-70-19.1c-3.8-1.5-8.2,1.7-9.2,5.2-1.2,4.3,1.5,7.7,5.2,9.2a308.91,308.91,0,0,0,70,19.1V194.5c-47.6,10.5-104,15-143.9-18.7-7.4-6.1-18,4.5-10.6,10.7Z" transform="translate(-44.06 -25.99)"/><path d="M348.7,55.8C379.8,38,419,36.3,451.9,50.2c32.7,13.9,56,43.3,64.6,77.5a113.24,113.24,0,0,1-.4,57.8c-2.5,9.3,11.9,13.3,14.5,4,10.3-38,2.1-80.4-21.3-112.1-24.1-32.5-62.2-51-102.7-51.4a130.47,130.47,0,0,0-65.5,16.8c-8.4,4.8-.8,17.8,7.6,13Z" transform="translate(-44.06 -25.99)"/><path d="M277,485.3a64.53,64.53,0,0,1-19.1,58.8c-7,6.7,3.5,17.2,10.6,10.6,1.1-1,2.1-2,3.2-2.9,7.1-6.6-3.5-17.2-10.6-10.6-1.1,1-2.1,2-3.2,2.9l10.6,10.6a80.16,80.16,0,0,0,22.9-73.4c-1.8-9.4-16.2-5.4-14.4,4Z" transform="translate(-44.06 -25.99)"/><path d="M428,466.5c4.8,14.9,9.4,30.9,17.3,44.6,7.4,12.9,19.5,20.8,32.5,27.4,8.6,4.4,16.2-8.6,7.6-13-11.3-5.8-21.7-12-27.9-23.5-6.6-12.3-10.7-26.3-15-39.6-3-9.1-17.5-5.2-14.5,4.1Z" transform="translate(-44.06 -25.99)"/><path d="M209.2,542.8c-40.9,11.3-74.6,38.9-99.4,72.6-27.9,38-43,83.6-52.4,129.4-5.8,28.1-9.5,56.6-13.3,85-.5,4,3.8,7.5,7.5,7.5,4.5,0,7-3.5,7.5-7.5,11.4-86.3,25.6-182.2,96.2-241.7a154.19,154.19,0,0,1,57.8-30.9c9.4-2.5,5.4-16.9-3.9-14.4Z" transform="translate(-44.06 -25.99)"/><path d="M92.3,670.1c37,46.2,37.1,109.2,36.3,165.5-.1,9.7,14.9,9.7,15,0,.9-60.9-.8-126.2-40.7-176.1-2.6-3.2-7.9-2.6-10.6,0-3.1,3-2.5,7.4,0,10.6Z" transform="translate(-44.06 -25.99)"/><path d="M214,557.6c43.7-4.1,80.9,27.5,121,39.5,24.4,7.3,49.1,5.4,73.6-.9,20.1-5.3,40-13.4,57.2-25.1,19.6-13.4,35.4-31.4,43.2-54.1-3.1,1.7-6.2,3.5-9.2,5.2,42.1,9.6,72.6,43.3,94.2,78.8,25.7,42.1,43.1,89.5,52.5,137.9a427.65,427.65,0,0,1,7.9,83.7c0,9.7,15,9.7,15,0a447.93,447.93,0,0,0-27.3-155C625.7,623,603,577.5,568.3,544.3c-18.1-17.3-39.9-30.8-64.5-36.4a7.74,7.74,0,0,0-9.2,5.2c-13,37.7-52.2,58.7-88.5,68.4-22.9,6.1-45.5,7.9-68.4.9-19.6-6-37.6-16-56.3-24.3-21.2-9.5-43.7-17.4-67.3-15.2-9.6.6-9.7,15.6-.1,14.7Z" transform="translate(-44.06 -25.99)"/><path d="M605.1,615.5c-18.7,27.8-35.8,55.8-40.4,89.5-2.4,17.7-3.7,35.7-4.6,53.5a278.38,278.38,0,0,0,2.1,54c.6,4,5.7,6.2,9.2,5.2,4.3-1.2,5.8-5.2,5.2-9.2-2.5-17.2-2.4-34.7-1.5-52,.9-16.5,2-33.1,4.3-49.5,4.3-31.8,21.1-58,38.6-84.1,5.5-7.9-7.5-15.4-12.9-7.4Z" transform="translate(-44.06 -25.99)"/><path d="M169,580.2c28.9-3,57.1.9,83.8,12.4,24.7,10.6,47.6,24.9,72.7,34.4,52.8,20,109.8,7.3,156.1-22.8,25.7-16.7,48.1-37.8,68.7-60.4,6.5-7.1-4.1-17.8-10.6-10.6-35.5,39.1-78,74.8-131,85.8a139.72,139.72,0,0,1-77.6-5.9c-24.2-9-46.3-22.8-69.9-33.1-29.3-12.8-60.2-18.1-92.1-14.7-4,.4-7.5,3.1-7.5,7.5-.1,3.6,3.3,7.8,7.4,7.4Z" transform="translate(-44.06 -25.99)"/><path d="M256.8,632.2c22.2,1.3,42.8,11,63.3,18.7,21.5,8.1,44,13.9,67.1,9.6,9.5-1.8,5.5-16.2-4-14.5-21.9,4.1-44-3.8-64.2-11.6s-40.3-16-62.2-17.3c-9.6-.5-9.6,14.5,0,15.1Z" transform="translate(-44.06 -25.99)"/><path d="M295.7,676.1c20.9,1.6,38.3,16.4,59.9,14.9,9.6-.7,9.6-15.7,0-15-10.4.7-19.9-2.9-29.5-6.6-10-3.9-19.7-7.5-30.5-8.3-9.5-.8-9.4,14.2.1,15Z" transform="translate(-44.06 -25.99)"/><path d="M265.6,278.1a125.11,125.11,0,0,0-94.8,14.6c-6.6,4-.6,14.4,6.1,10.4a112.49,112.49,0,0,1,85.5-13.4c7.5,1.8,10.7-9.7,3.2-11.6Z" transform="translate(-44.06 -25.99)"/><path d="M391.2,264.6c27.3-10.6,57.4-21.3,86.4-10.6,7.3,2.7,10.4-8.9,3.2-11.6-31-11.4-63.4-.7-92.7,10.6-7.2,2.8-4.1,14.4,3.1,11.6Z" transform="translate(-44.06 -25.99)"/><path d="M300.5,315.9a110.69,110.69,0,0,1,3.3,26.9c.1,4,1,7.6-3,9.4a106.38,106.38,0,0,1-13.5,4.4,302.12,302.12,0,0,1-54.9,11.2c-4.5.5-9.1,1-13.7,1.1-4.4.1-6.7-1-9.4-4.4a87.76,87.76,0,0,1-7-10.2c-1.7-2.7-5.7-7.6-4.5-11,2.1-5.8,14.1-8.2,19-9.8a279.34,279.34,0,0,1,27.1-7.7,219,219,0,0,1,62.5-5.4c7.7.5,7.7-11.5,0-12a231.8,231.8,0,0,0-68.4,6.5,267.31,267.31,0,0,0-34,10.5c-7.6,2.9-16,7.3-18,16-2.2,9.8,6.6,20.6,12,27.9,2.5,3.4,5.1,6.9,8.8,9.1,4.4,2.6,9.4,2.8,14.4,2.5a306.93,306.93,0,0,0,68.5-12.3c10.8-3.2,24.9-5.4,26.2-18.8,1.1-12-.6-25.2-3.7-36.9-2.1-7.7-13.7-4.5-11.7,3Z" transform="translate(-44.06 -25.99)"/><path d="M370.7,296c0,10.4.1,20.7.1,31.1,0,4.6-.7,9.9.8,14.3,1.7,4.9,6,6.9,10.8,7.5,17.9,2.4,35.3,2,52.9-2.2,10.3-2.5,20.6-5.3,30.9-8.1,3.9-1.1,7.4-2.3,9.2-6.1,2.2-4.6,2.1-11.1,2.3-16.2.4-8.4,1.3-20-3.5-27.5-5.3-8.3-15.9-7.4-24.4-7.3a348.29,348.29,0,0,0-74.8,8.8c-7.5,1.7-4.3,13.3,3.2,11.6a328.46,328.46,0,0,1,52.2-7.6c8.7-.6,17.5-.8,26.2-.7,2.8,0,6.4-.4,7.9,2.5s1.2,7.5,1.3,10.6a114.2,114.2,0,0,1-.2,11.7c-.2,2.2-.1,4.8-.7,6.9.9-3.2-.4,1.8,0,1.4-.4.5-3.1.8-3.8,1-8.4,2.3-16.8,4.5-25.3,6.7a128.07,128.07,0,0,1-39.5,4.1c-2-.1-4-.3-5.9-.5-1.4-.1-6.6.1-7.6-.9-.7-.7-.1-4.4-.1-5.3v-7.3c0-9.4-.1-18.9-.1-28.3,0-7.9-12-7.9-11.9-.2Z" transform="translate(-44.06 -25.99)"/><path d="M317.6,336.9a73.55,73.55,0,0,1,50.6-7.6c7.5,1.6,10.8-10,3.2-11.6a86.89,86.89,0,0,0-59.8,8.8c-6.8,3.7-.8,14.1,6,10.4Z" transform="translate(-44.06 -25.99)"/><path d="M195.6,346.1c-21-6.9-42-9.2-64-9.3-7.7,0-7.7,12,0,12a226.21,226.21,0,0,1,30.8,1.6,164.37,164.37,0,0,1,30,7.4c7.4,2.3,10.5-9.3,3.2-11.7Z" transform="translate(-44.06 -25.99)"/><path d="M476.9,308a209.19,209.19,0,0,1,52.9-20.1c7.5-1.8,4.3-13.3-3.2-11.6a221.16,221.16,0,0,0-55.7,21.3c-6.9,3.8-.8,14.1,6,10.4Z" transform="translate(-44.06 -25.99)"/><path d="M315.5,428.1c19.6,12.5,41.7,11.2,60.4-2.4,6.2-4.5.2-14.9-6.1-10.4-7.1,5.2-15.1,9.4-24.1,9.8-8.8.4-16.8-2.7-24.2-7.4-6.5-4.1-12.5,6.3-6,10.4Z" transform="translate(-44.06 -25.99)"/><circle cx="209.14" cy="316.81" r="10.8"/><circle cx="380.24" cy="290.01" r="10.8"/></g></svg>